<svg width="20" height="20" viewBox="0 0 20 20" fill="none" xmlns="http://www.w3.org/2000/svg">
<g clip-path="url(#clip0_119_422)">
<path fill-rule="evenodd" clip-rule="evenodd" d="M5.77234 0H14.228C17.4034 0 20 2.5868 20 5.74694V14.2531C20 17.414 17.4034 20 14.228 20H5.77234C2.597 20 0 17.414 0 14.2531V5.74694C0 2.5868 2.59697 0 5.77234 0ZM9.94613 4.60024C13.0318 4.60024 15.5358 7.12598 15.5358 10.2385C15.5358 13.3513 13.0318 15.8767 9.94613 15.8767C6.85972 15.8767 4.35612 13.3513 4.35612 10.2385C4.35612 7.12598 6.85972 4.60024 9.94613 4.60024V4.60024ZM9.94613 6.50459C11.9895 6.50459 13.6478 8.17701 13.6478 10.2385C13.6478 12.2999 11.9894 13.9727 9.94613 13.9727C7.90206 13.9727 6.24406 12.2999 6.24406 10.2385C6.24406 8.17701 7.90206 6.50459 9.94613 6.50459ZM15.3538 3.81879C15.855 3.81879 16.2614 4.2287 16.2614 4.73393C16.2614 5.23953 15.855 5.64944 15.3538 5.64944C14.8529 5.64944 14.4465 5.23953 14.4465 4.73393C14.4465 4.2287 14.8529 3.81879 15.3538 3.81879V3.81879ZM6.46328 1.63371H13.5378C16.1942 1.63371 18.3668 3.81431 18.3668 6.47897V13.6507C18.3668 16.3153 16.1942 18.4956 13.5378 18.4956H6.46328C3.80687 18.4956 1.634 16.3153 1.634 13.6507V6.4789C1.634 3.81431 3.80687 1.63371 6.46328 1.63371V1.63371Z" fill="#F2F2EA"/>
</g>
<defs>
<clipPath id="clip0_119_422">
<rect width="20" height="20" fill="white"/>
</clipPath>
</defs>
</svg>
