<?xml version="1.0" encoding="utf-8"?><!DOCTYPE svg PUBLIC "-//W3C//DTD SVG 1.1//EN" "http://www.w3.org/Graphics/SVG/1.1/DTD/svg11.dtd"><svg version="1.1" xmlns="http://www.w3.org/2000/svg" xmlns:xlink="http://www.w3.org/1999/xlink" viewBox="0 0 900 750" width="900" height="750"><g class="svg-logo"><g class="base"><g class="logo-element laurel"><path d="M268.12 410.44c-10.92 6.08-16.45 14.43-14.12 26.02 1.29-5.5 4.34-10.43 8.63-14.98 -1.01 6.17-3.1 11.57-6.7 15.94C266.58 432.26 269.88 422.82 268.12 410.44zM325.94 508.93c-5.32 11.32-4.94 21.3 3.71 29.37 -2.15-5.23-2.57-11.01-1.72-17.2 2.77 5.59 4.23 11.21 3.85 16.85C337.42 527.55 334.59 517.96 325.94 508.93zM312.2 495.32c-6.46 10.71-7.12 20.69 0.65 29.6 -1.6-5.42-1.41-11.22 0.07-17.28 2.18 5.85 3.05 11.58 2.09 17.16C321.69 515.04 319.87 505.2 312.2 495.32zM289.3 464.22c-8.53 9.14-11.24 18.77-5.46 29.1 -0.45-5.63 0.93-11.27 3.63-16.9 0.93 6.18 0.59 11.97-1.5 17.23C294.52 485.46 294.76 475.47 289.3 464.22zM299.94 480.37c-7.54 9.98-9.23 19.83-2.42 29.51 -1.04-5.56-0.24-11.3 1.86-17.19 1.56 6.05 1.83 11.85 0.29 17.28C307.33 500.96 306.54 490.98 299.94 480.37zM280.39 447.06c-9.43 8.2-13.12 17.5-8.45 28.38 0.13-5.66 2.09-11.11 5.36-16.44 0.28 6.25-0.65 11.98-3.28 16.98C283.38 468.73 284.66 458.8 280.39 447.06zM273.3 429.07c-10.23 7.19-14.86 16.05-11.35 27.34 0.72-5.62 3.24-10.83 7.04-15.8 -0.37 6.24-1.89 11.83-5.02 16.54C274.03 450.93 276.33 441.2 273.3 429.07zM347.76 549.87c-2.69-4.98-3.7-10.69-3.5-16.93 3.34 5.28 5.37 10.71 5.58 16.36 4.53-10.93 0.72-20.17-8.82-28.25C336.9 532.85 338.31 542.74 347.76 549.87zM268.53 479.21c-5.65-0.14-11.11-2.1-16.43-5.36 6.24-0.28 11.96 0.65 16.97 3.27 -7.24-9.35-17.16-10.64-28.91-6.37C248.37 480.19 257.67 483.87 268.53 479.21zM264.9 391.37c-11.49 4.92-17.85 12.64-16.74 24.43 1.86-5.34 5.4-9.94 10.14-14.01 -1.65 6.03-4.29 11.19-8.32 15.16C261.11 412.92 265.37 403.86 264.9 391.37zM329.75 558.33c5.28-3.34 10.71-5.37 16.36-5.58 -10.93-4.53-20.18-0.72-28.26 8.82 11.81 4.12 21.71 2.71 28.82-6.75C341.7 557.52 335.99 558.53 329.75 558.33zM280.84 497.43c-5.64 0.46-11.27-0.94-16.9-3.63 6.18-0.92 11.97-0.59 17.23 1.5 -8.18-8.54-18.17-8.79-29.41-3.33C260.89 500.49 270.51 503.19 280.84 497.43zM258.18 459.81c-5.61-0.71-10.84-3.23-15.79-7.04 6.23 0.36 11.84 1.89 16.54 5.02 -6.23-10.05-15.96-12.36-28.09-9.32C238.03 458.7 246.89 463.32 258.18 459.81zM294.97 514.27c-5.56 1.04-11.31 0.25-17.19-1.85 6.05-1.57 11.84-1.83 17.28-0.3 -9.01-7.66-18.98-6.86-29.6-0.26C275.44 519.39 285.3 521.08 294.97 514.27zM293.48 529.49c5.86-2.19 11.59-3.05 17.16-2.08 -9.76-6.69-19.6-4.86-29.47 2.81 10.7 6.46 20.68 7.12 29.59-0.66C305.35 531.17 299.55 530.97 293.48 529.49zM310.86 544.85c5.6-2.77 11.21-4.23 16.85-3.85 -10.4-5.64-19.99-2.81-29.02 5.85 11.32 5.32 21.31 4.94 29.37-3.72C322.84 545.29 317.05 545.7 310.86 544.85zM249.9 439.45c-5.51-1.3-10.44-4.34-14.98-8.64 6.17 1.01 11.57 3.11 15.94 6.7 -5.16-10.64-14.6-13.94-26.98-12.18C229.96 436.26 238.3 441.77 249.9 439.45zM284.34 245.44c3.99-1.58 8.38-1.82 13.06-1.11 -4.27 2.04-8.55 3.08-12.82 2.72 7.82 4.39 15.13 2.36 22.07-4.09C298.13 238.8 290.55 238.97 284.34 245.44zM255.85 361.58c-2.85 5.56-6.5 10.06-11.27 13.11 11.71-1.64 17.75-9.62 19.87-21.94 -12.26 2.44-20.08 8.68-21.42 20.43C245.97 368.35 250.37 364.58 255.85 361.58zM298.92 254.7c-9.66-3.81-17.92-2.97-24.15 4.63 4.22-2.06 8.99-2.71 14.17-2.34 -4.49 2.61-9.07 4.1-13.77 4.09C284.09 265.2 291.89 262.34 298.92 254.7zM294.5 232.97c3.72-1.15 7.72-1.06 11.92-0.09 -4.02 1.55-7.97 2.19-11.82 1.57 6.78 4.54 13.55 3.21 20.3-2.16C307.48 227.91 300.59 227.54 294.5 232.97zM243.76 418.34c-5.34-1.86-9.93-5.4-14-10.14 6.03 1.65 11.19 4.29 15.15 8.32 -4.03-11.13-13.07-15.38-25.57-14.92C224.27 413.09 231.99 419.45 243.76 418.34zM305.19 221.71c3.4-0.77 6.97-0.43 10.65 0.72 -3.7 1.11-7.26 1.42-10.66 0.61 5.75 4.5 11.89 3.77 18.27-0.56C317.11 218.07 310.99 217.27 305.19 221.71zM314.85 213.75c3.86 3.44 8.22 3.19 12.93 0.42 -4.28-3.4-8.57-4.24-12.87-1.36 2.44-0.39 4.95 0.01 7.49 0.99C319.74 214.41 317.21 214.47 314.85 213.75zM291.96 267.71c-10.96-3.28-19.95-1.59-26.08 7.34 4.44-2.66 9.62-3.81 15.34-3.89 -4.69 3.27-9.57 5.35-14.73 5.77C276.66 280.62 284.96 276.76 291.96 267.71zM246.19 395.96c11.48-2.86 16.65-11.41 17.49-23.89 -11.94 3.71-19.07 10.72-19.18 22.55 2.4-5.12 6.4-9.33 11.54-12.88C253.77 387.57 250.61 392.43 246.19 395.96zM258.3 291.5c4.19-3.04 9.25-4.64 14.94-5.21 -4.38 3.67-9.07 6.17-14.17 7.04 10.46 2.78 18.39-1.79 24.57-11.41C272.43 279.6 263.62 282.07 258.3 291.5zM246.86 330.2c3.78-4.04 8.76-6.76 14.61-8.52 -3.85 4.74-8.26 8.31-13.43 10.27 11.55 0.79 18.93-5.63 23.45-17C259.26 314.83 250.52 319.22 246.86 330.2zM257.76 341.5c-3.42 5.23-7.51 9.34-12.56 11.88 11.82-0.42 18.65-7.73 22.04-19.77 -12.45 1.16-20.87 6.55-23.42 18.11C247.22 347.21 252 343.92 257.76 341.5zM252.17 309.11c4.09-3.56 9.22-5.71 15.11-6.83 -4.24 4.23-8.9 7.28-14.14 8.66 11.18 1.94 19.03-3.57 24.59-14.19C265.82 295.37 256.85 298.77 252.17 309.11zM324.63 203.14c-1.53 2.24-3.35 3.98-5.56 5.03 5.13-0.07 8.16-3.17 9.74-8.36 -5.41 0.38-9.11 2.64-10.33 7.63C320 205.51 322.1 204.13 324.63 203.14zM238.85 352.8c-4.51-3.41-7.8-8.19-10.21-13.95 5.23 3.41 9.34 7.51 11.87 12.56 -0.42-11.82-7.73-18.65-19.76-22.03C221.9 341.83 227.3 350.25 238.85 352.8zM241.92 330.75c-4.05-3.78-6.76-8.76-8.53-14.6 4.74 3.85 8.32 8.26 10.28 13.43 0.79-11.55-5.63-18.94-17-23.45C226.54 318.36 230.94 327.1 241.92 330.75zM247.29 309.13c-3.56-4.08-5.7-9.22-6.83-15.11 4.23 4.24 7.28 8.89 8.66 14.14 1.94-11.17-3.57-19.03-14.19-24.59C233.56 295.49 236.96 304.46 247.29 309.13zM253.66 291.12c-3.04-4.2-4.64-9.25-5.21-14.94 3.67 4.39 6.16 9.07 7.03 14.18 2.79-10.46-1.78-18.39-11.41-24.58C241.76 276.99 244.23 285.8 253.66 291.12zM239.86 396.7c-5.12-2.4-9.32-6.4-12.87-11.54 5.82 2.26 10.68 5.43 14.21 9.85 -2.86-11.49-11.41-16.65-23.89-17.49C221.01 389.46 228.03 396.59 239.86 396.7zM238.21 374.77c-4.84-2.92-8.61-7.33-11.61-12.8 5.56 2.85 10.07 6.5 13.11 11.26 -1.65-11.72-9.62-17.75-21.94-19.87C220.22 365.62 226.46 373.44 238.21 374.77zM279.31 230.91c2.04 4.27 3.08 8.55 2.73 12.83 4.39-7.83 2.36-15.12-4.1-22.08 -4.16 8.52-3.99 16.1 2.49 22.31C278.84 239.98 278.59 235.59 279.31 230.91zM261.3 274.26c-2.66-4.43-3.82-9.61-3.89-15.33 3.27 4.69 5.34 9.57 5.77 14.73 3.69-10.18-0.17-18.47-9.22-25.48C250.67 259.15 252.37 268.14 261.3 274.26zM302.56 209.01c1.11 3.7 1.42 7.27 0.61 10.67 4.5-5.75 3.77-11.88-0.57-18.27 -4.41 6.34-5.2 12.46-0.76 18.26C301.06 216.26 301.4 212.7 302.56 209.01zM313.07 203.09c0.62 2.66 0.68 5.19-0.05 7.55 3.44-3.85 3.19-8.22 0.42-12.93 -3.4 4.28-4.24 8.57-1.36 12.87C311.68 208.13 312.09 205.63 313.07 203.09zM290.76 219.26c1.55 4.03 2.19 7.98 1.57 11.82 4.53-6.78 3.2-13.55-2.16-20.3 -4.37 7.43-4.75 14.31 0.68 20.4C289.7 227.45 289.79 223.46 290.76 219.26zM270.59 258.21c-2.06-4.22-2.71-9-2.34-14.17 2.6 4.49 4.1 9.07 4.08 13.77 4.12-8.93 1.27-16.72-6.37-23.75C262.15 243.71 262.99 251.98 270.59 258.21zM351.79 552.59c-16.66-8.95-31.97-20.1-45.51-33.09 -64.65-62-82.45-158.1-44.44-238.43 12.87-27.19 31.63-51.6 55.37-71.25 0.66-0.55 0.37-0.97 0.35-1 -0.03-0.03-0.39-0.43-1.08 0.14 -23.86 19.76-42.73 44.31-55.66 71.63 -38.31 80.97-21.36 177.96 43.9 240.55 13.65 13.09 29.07 24.33 45.86 33.37 0.82 0.35 2.38 1.38 2.89 0.43C354.02 553.89 352.45 552.99 351.79 552.59z" fill="#000" stroke="none" stroke-width="0"></path><path d="M631.81 410.44c-1.76 12.37 1.54 21.82 12.19 26.98 -3.6-4.37-5.69-9.77-6.7-15.94 4.3 4.54 7.34 9.48 8.63 14.98C648.26 424.87 642.74 416.53 631.81 410.44zM572 521.1c0.85 6.19 0.44 11.98-1.72 17.2 8.66-8.07 9.04-18.05 3.71-29.37 -8.65 9.03-11.48 18.62-5.84 29.02C567.78 532.31 569.23 526.69 572 521.1zM587.74 495.32c-7.67 9.88-9.49 19.72-2.81 29.47 -0.96-5.57-0.1-11.31 2.09-17.15 1.48 6.07 1.67 11.86 0.06 17.28C594.86 516.01 594.2 506.03 587.74 495.32zM610.64 464.22c-5.46 11.25-5.22 21.24 3.33 29.42 -2.09-5.26-2.42-11.05-1.5-17.23 2.7 5.64 4.08 11.27 3.63 16.9C621.88 482.99 619.17 473.36 610.64 464.22zM600 480.37c-6.6 10.61-7.4 20.59 0.26 29.6 -1.53-5.43-1.27-11.23 0.29-17.28 2.1 5.89 2.9 11.63 1.86 17.19C609.23 500.2 607.54 490.35 600 480.37zM628 475.44c4.67-10.88 0.98-20.17-8.45-28.37 -4.27 11.74-2.99 21.67 6.36 28.91 -2.62-5-3.56-10.73-3.28-16.98C625.91 464.32 627.87 469.78 628 475.44zM626.63 429.07c-3.03 12.13-0.73 21.85 9.33 28.08 -3.13-4.71-4.65-10.3-5.02-16.54 3.8 4.96 6.32 10.18 7.04 15.8C641.49 445.12 636.86 436.26 626.63 429.07zM555.68 532.94c0.2 6.24-0.81 11.95-3.5 16.93 9.45-7.12 10.86-17.02 6.74-28.82 -9.54 8.09-13.35 17.33-8.82 28.26C550.31 543.64 552.33 538.22 555.68 532.94zM630.87 477.12c5.01-2.63 10.73-3.55 16.97-3.27 -5.32 3.27-10.78 5.23-16.43 5.36 10.87 4.66 20.16 0.99 28.37-8.45C648.03 466.48 638.11 467.77 630.87 477.12zM651.77 415.79c1.11-11.79-5.24-19.51-16.74-24.42 -0.47 12.49 3.79 21.55 14.92 25.57 -4.03-3.97-6.68-9.13-8.32-15.16C646.38 405.85 649.91 410.45 651.77 415.79zM553.83 552.75c5.65 0.21 11.08 2.24 16.36 5.58 -6.24 0.2-11.95-0.82-16.92-3.51 7.12 9.46 17.02 10.87 28.82 6.75C574 552.03 564.75 548.22 553.83 552.75zM618.78 495.29c5.26-2.09 11.04-2.41 17.23-1.5 -5.63 2.7-11.27 4.09-16.9 3.63 10.33 5.77 19.95 3.06 29.1-5.46C636.95 486.5 626.95 486.75 618.78 495.29zM641 457.79c4.71-3.13 10.31-4.66 16.54-5.02 -4.95 3.8-10.18 6.32-15.79 7.04 11.29 3.52 20.16-1.1 27.34-11.34C656.97 445.43 647.24 447.74 641 457.79zM604.87 512.11c5.44-1.53 11.24-1.27 17.28 0.3 -5.88 2.1-11.63 2.89-17.19 1.85 9.67 6.82 19.53 5.12 29.51-2.42C623.85 505.25 613.88 504.45 604.87 512.11zM589.29 527.41c5.57-0.96 11.31-0.1 17.16 2.09 -6.07 1.48-11.87 1.68-17.28 0.06 8.91 7.78 18.89 7.12 29.59 0.66C608.89 522.55 599.05 520.72 589.29 527.41zM572.22 541c5.64-0.38 11.26 1.08 16.85 3.85 -6.19 0.84-11.98 0.43-17.2-1.73 8.06 8.66 18.05 9.04 29.37 3.72C592.21 538.19 582.62 535.36 572.22 541zM649.08 437.51c4.36-3.59 9.77-5.68 15.94-6.7 -4.53 4.3-9.47 7.34-14.98 8.64 11.6 2.32 19.93-3.19 26.02-14.12C663.68 423.57 654.24 426.87 649.08 437.51zM615.59 245.44c-6.21-6.48-13.79-6.65-22.31-2.48 6.94 6.45 14.25 8.49 22.07 4.1 -4.28 0.36-8.55-0.69-12.82-2.72C607.21 243.62 611.61 243.87 615.59 245.44zM656.9 373.18c-1.34-11.75-9.15-17.99-21.42-20.43 2.12 12.32 8.16 20.3 19.87 21.94 -4.76-3.05-8.41-7.55-11.27-13.1C649.56 364.58 653.97 368.35 656.9 373.18zM625.16 259.33c-6.23-7.6-14.49-8.44-24.15-4.63 7.03 7.64 14.83 10.5 23.75 6.38 -4.69 0.02-9.27-1.48-13.77-4.09C616.17 256.62 620.95 257.27 625.16 259.33zM605.43 232.97c-6.09-5.43-12.97-5.05-20.4-0.68 6.75 5.37 13.52 6.7 20.3 2.16 -3.85 0.62-7.8-0.02-11.82-1.57C597.71 231.9 601.71 231.82 605.43 232.97zM655.02 416.52c3.97-4.03 9.13-6.67 15.15-8.32 -4.06 4.74-8.66 8.28-14 10.14 11.77 1.12 19.49-5.25 24.41-16.74C668.09 401.13 659.05 405.39 655.02 416.52zM594.75 221.71c-5.8-4.44-11.92-3.64-18.26 0.77 6.39 4.33 12.52 5.06 18.27 0.56 -3.39 0.82-6.96 0.51-10.66-0.61C587.78 221.28 591.35 220.94 594.75 221.71zM585.03 212.8c-4.3-2.88-8.59-2.03-12.87 1.36 4.71 2.77 9.07 3.02 12.93-0.42 -2.36 0.72-4.89 0.66-7.55 0.04C580.08 212.81 582.59 212.41 585.03 212.8zM607.98 267.71c7 9.05 15.3 12.91 25.47 9.22 -5.16-0.42-10.04-2.5-14.73-5.77 5.71 0.08 10.9 1.23 15.34 3.89C627.93 266.12 618.94 264.43 607.98 267.71zM655.44 394.62c-0.11-11.83-7.24-18.84-19.18-22.55 0.84 12.48 6.01 21.03 17.49 23.89 -4.42-3.53-7.58-8.38-9.85-14.21C649.04 385.29 653.04 389.5 655.44 394.62zM616.3 281.91c6.19 9.63 14.11 14.2 24.57 11.41 -5.1-0.87-9.79-3.37-14.17-7.04 5.69 0.57 10.75 2.18 14.94 5.22C636.32 282.07 627.51 279.6 616.3 281.91zM628.45 314.96c4.52 11.37 11.9 17.79 23.45 17 -5.17-1.96-9.58-5.53-13.43-10.27 5.85 1.76 10.83 4.48 14.61 8.52C649.42 319.22 640.68 314.83 628.45 314.96zM656.12 351.72c-2.55-11.56-10.97-16.95-23.42-18.11 3.39 12.03 10.22 19.35 22.04 19.77 -5.05-2.54-9.15-6.65-12.56-11.88C647.94 343.92 652.71 347.21 656.12 351.72zM622.21 296.74c5.56 10.62 13.41 16.13 24.59 14.19 -5.24-1.38-9.9-4.43-14.14-8.66 5.89 1.12 11.02 3.27 15.11 6.83C643.09 298.77 634.12 295.37 622.21 296.74zM580.87 208.17c-2.21-1.05-4.03-2.79-5.56-5.03 2.52 1 4.63 2.38 6.15 4.3 -1.22-4.99-4.92-7.24-10.33-7.63C572.72 204.99 575.74 208.1 580.87 208.17zM659.43 351.41c2.54-5.05 6.65-9.15 11.87-12.56 -2.41 5.76-5.71 10.53-10.21 13.95 11.55-2.55 16.95-10.97 18.11-23.42C667.16 332.77 659.85 339.59 659.43 351.41zM656.27 329.58c1.95-5.17 5.54-9.58 10.28-13.43 -1.76 5.85-4.48 10.83-8.53 14.6 10.98-3.65 15.38-12.39 15.25-24.63C661.9 310.64 655.48 318.03 656.27 329.58zM650.82 308.16c1.38-5.24 4.43-9.9 8.66-14.14 -1.12 5.88-3.27 11.02-6.83 15.11 10.33-4.67 13.73-13.64 12.36-25.55C654.38 289.13 648.88 296.99 650.82 308.16zM644.46 290.35c0.87-5.11 3.37-9.79 7.03-14.18 -0.57 5.69-2.18 10.75-5.21 14.94 9.43-5.32 11.9-14.13 9.59-25.35C646.24 271.96 641.67 279.89 644.46 290.35zM660.08 396.7c11.83-0.11 18.84-7.23 22.55-19.17 -12.48 0.83-21.03 6-23.89 17.49 3.53-4.42 8.39-7.59 14.21-9.85C669.4 390.3 665.2 394.29 660.08 396.7zM660.22 373.23c3.05-4.76 7.56-8.41 13.11-11.26 -3 5.48-6.77 9.89-11.61 12.81 11.75-1.34 17.99-9.15 20.44-21.41C669.84 355.48 661.87 361.52 660.22 373.23zM620.63 230.91c0.71 4.68 0.47 9.07-1.11 13.06 6.48-6.21 6.65-13.79 2.49-22.31 -6.46 6.95-8.5 14.25-4.1 22.08C617.55 239.46 618.59 235.18 620.63 230.91zM636.76 273.66c0.42-5.16 2.5-10.04 5.77-14.73 -0.07 5.71-1.23 10.89-3.89 15.33 8.93-6.12 10.62-15.11 7.34-26.08C636.93 255.19 633.07 263.48 636.76 273.66zM597.38 209.01c1.15 3.69 1.5 7.25 0.72 10.66 4.44-5.8 3.65-11.92-0.76-18.26 -4.34 6.39-5.07 12.52-0.57 18.27C595.96 216.28 596.27 212.7 597.38 209.01zM586.87 203.09c0.98 2.54 1.39 5.05 0.99 7.49 2.88-4.3 2.04-8.59-1.36-12.87 -2.77 4.71-3.02 9.07 0.42 12.93C586.19 208.28 586.25 205.74 586.87 203.09zM609.17 219.26c0.97 4.2 1.06 8.19-0.09 11.92 5.43-6.09 5.05-12.97 0.68-20.4 -5.36 6.75-6.7 13.51-2.16 20.3C606.98 227.23 607.62 223.28 609.17 219.26zM631.69 244.04c0.37 5.17-0.27 9.95-2.34 14.17 7.6-6.23 8.44-14.49 4.63-24.15 -7.65 7.03-10.5 14.83-6.37 23.75C627.59 253.11 629.09 248.53 631.69 244.04zM639.12 280.59c-12.93-27.32-31.8-51.87-55.66-71.63 -0.68-0.57-1.05-0.17-1.08-0.13 -0.02 0.03-0.31 0.45 0.35 1 23.73 19.66 42.5 44.07 55.37 71.26 38.01 80.32 20.2 176.43-44.44 238.43 -13.54 12.99-28.85 24.13-45.51 33.09 -0.66 0.4-2.23 1.3-1.66 2.35 0.51 0.95 2.06-0.08 2.89-0.43 16.78-9.04 32.21-20.28 45.86-33.37C660.48 458.55 677.44 361.56 639.12 280.59z" fill="#000" stroke="none" stroke-width="0"></path></g></g><g class="swag"><g class="logo-element base-addon-laurel-bottom-laurel"><path d="M538.207,543.015c-0.446,6.23-2.043,11.803-5.233,16.478c10.136-6.105,12.566-15.804,9.694-27.975         c-10.325,7.056-15.072,15.854-11.702,27.188C531.759,553.115,534.342,547.915,538.207,543.015z"></path><path d="M519.792,551.228c-1.094,6.153-3.257,11.531-6.916,15.845c10.715-5.022,14.138-14.415,12.54-26.815         c-10.999,5.949-16.633,14.204-14.46,25.829C512.326,560.604,515.434,555.711,519.792,551.228z"></path><path d="M500.617,557.49c-1.724,6.002-4.432,11.133-8.518,15.048c11.18-3.88,15.557-12.876,15.255-25.38         c-11.562,4.776-18.017,12.411-17.059,24.205C492.222,566.035,495.823,561.489,500.617,557.49z"></path><path d="M464.75,562.401c-2.492,4.707-5.653,8.501-9.745,11.056c10.001-1.277,15.23-8.001,17.175-18.477         c-10.477,1.949-17.205,7.173-18.477,17.175C456.249,568.061,460.048,564.894,464.75,562.401z"></path><path d="M480.902,561.73c-2.34,5.794-5.566,10.622-10.034,14.075c11.519-2.697,16.801-11.184,17.8-23.65         c-11.991,3.549-19.204,10.468-19.476,22.29C471.665,569.362,475.715,565.21,480.902,561.73z"></path><path d="M449.844,563.967c1.179,3.856,1.523,7.575,0.694,11.122c4.671-6.024,3.867-12.424-0.694-19.061         c-4.56,6.637-5.362,13.036-0.694,19.053C448.321,571.542,448.661,567.824,449.844,563.967z"></path><path d="M444.93,573.457c-4.093-2.554-7.26-6.349-9.749-11.056c4.704,2.493,8.507,5.66,11.043,9.754         c-1.269-10.002-7.996-15.226-18.471-17.175C429.697,565.456,434.926,572.179,444.93,573.457z"></path><path d="M387.001,567.073c-3.657-4.313-5.821-9.691-6.915-15.845c4.356,4.483,7.463,9.376,8.832,14.858         c2.176-11.625-3.457-19.879-14.458-25.829C372.864,552.658,376.286,562.051,387.001,567.073z"></path><path d="M407.779,572.538c-4.086-3.915-6.8-9.046-8.521-15.048c4.795,3.999,8.395,8.545,10.324,13.873         c0.958-11.794-5.5-19.429-17.056-24.205C392.223,559.661,396.6,568.658,407.779,572.538z"></path><path d="M429.006,575.805c-4.467-3.454-7.692-8.281-10.033-14.075c5.186,3.48,9.24,7.632,11.707,12.714         c-0.269-11.822-7.481-18.741-19.471-22.29C412.204,564.622,417.488,573.108,429.006,575.805z"></path><path d="M366.904,559.493c-3.191-4.675-4.787-10.248-5.237-16.478c3.87,4.899,6.453,10.1,7.245,15.69         c3.369-11.334-1.376-20.132-11.701-27.188C354.338,543.689,356.768,553.388,366.904,559.493z"></path><path d="M547.888,552.729c-23.73,12.723-50.2,21-78.296,23.698c-6.008-3.542-11.802-3.84-17.3,0.417         c2.973-0.695,6.068-0.554,9.259,0.194c0.337,0.76-0.747,1.168-0.747,1.168c-2.928,0.604-5.774,0.664-8.513,0.024         c5.473,4.239,11.242,3.958,17.225,0.469c28.845-2.723,56.003-11.264,80.291-24.427         C549.154,553.775,548.52,553.253,547.888,552.729z"></path><path d="M371.121,579.073c4.475-4.356,9.372-7.471,14.86-8.832c-11.629-2.18-19.886,3.453-25.831,14.45         c12.403,1.599,21.795-1.82,26.814-12.536C382.651,575.815,377.271,577.985,371.121,579.073z"></path><path d="M393.225,586.111c4.003-4.801,8.551-8.391,13.866-10.321c-11.79-0.962-19.424,5.496-24.193,17.052         c12.501,0.299,21.488-4.075,25.372-15.25C404.359,581.677,399.228,584.385,393.225,586.111z"></path><path d="M415.943,590.817c3.482-5.184,7.633-9.234,12.714-11.703c-11.82,0.273-18.742,7.492-22.291,19.471         c12.464-0.992,20.957-6.271,23.653-17.794C426.551,585.257,421.734,588.486,415.943,590.817z"></path><path d="M435.181,592.434c2.489-4.715,5.656-8.511,9.749-11.056c-10.003,1.27-15.232,8.001-17.177,18.476         c10.475-1.938,17.202-7.173,18.471-17.173C443.688,586.775,439.884,589.932,435.181,592.434z"></path><path d="M450.083,590.861c-1.179-3.839-1.521-7.567-0.693-11.116c-4.664,6.036-3.865,12.424,0.693,19.063         c4.565-6.639,5.365-13.027,0.693-19.063C451.605,583.294,451.267,587.022,450.083,590.861z"></path><path d="M455.005,581.378c4.091,2.545,7.252,6.341,9.745,11.056c-4.702-2.502-8.501-5.659-11.046-9.753         c1.271,10,8,15.234,18.477,17.173C470.235,589.379,465.006,582.648,455.005,581.378z"></path><path d="M492.785,575.79c5.314,1.931,9.867,5.52,13.865,10.321c-5.998-1.726-11.134-4.434-15.042-8.52         c3.882,11.175,12.873,15.549,25.369,15.25C512.213,581.286,504.574,574.828,492.785,575.79z"></path><path d="M513.894,570.241c5.485,1.361,10.385,4.476,14.863,8.832c-6.154-1.088-11.531-3.258-15.848-6.918         c5.018,10.716,14.413,14.135,26.818,12.536C533.783,573.694,525.523,568.061,513.894,570.241z"></path><path d="M471.212,579.114c5.086,2.469,9.24,6.52,12.72,11.703c-5.794-2.331-10.612-5.56-14.078-10.026         c2.7,11.523,11.188,16.802,23.651,17.794C489.962,586.606,483.043,579.387,471.212,579.114z"></path><path d="M534.318,562.529c5.596,0.801,10.792,3.38,15.694,7.252c-6.231-0.46-11.806-2.051-16.476-5.236         c6.1,10.127,15.803,12.561,27.969,9.686C554.455,563.917,545.657,559.167,534.318,562.529z"></path><path d="M366.341,564.545c-4.671,3.185-10.247,4.776-16.477,5.236c4.903-3.872,10.097-6.451,15.695-7.252         c-11.34-3.362-20.138,1.388-27.188,11.702C350.539,577.106,360.24,574.672,366.341,564.545z"></path><path d="M439.087,577.949c0,0-1.418-0.485-1.477-0.96c3.455-0.919,6.814-1.142,10.025-0.383         c-5.604-4.342-11.523-3.95-17.663-0.214c-27.861-2.712-54.125-10.904-77.691-23.488c-0.383,0.647-0.758,1.299-1.125,1.956         c24.165,12.912,51.137,21.257,79.756,23.881c5.805,3.226,11.403,3.361,16.723-0.748         C444.879,578.63,442.022,578.564,439.087,577.949z"></path></g><g class="logo-element horizontal-line-single-solid"><line fill="none" stroke="#000000" stroke-width="6" x1="304.437" y1="375" x2="389.704" y2="375"></line><line fill="none" stroke="#000000" stroke-width="6" x1="510.294" y1="375" x2="595.562" y2="375"></line></g></g><g class="text"><g text-anchor="middle" transform="translate(450,345)" class="logo-element double-line"><path d="M37.57-40.76L37.57-44.40L7.61-44.40C5.72-44.40 4.16-43.62 2.86-42.32C1.63-41.08 0.91-39.45 0.91-37.57L4.55-37.57C4.55-38.41 4.94-39.33 5.46-39.84C6.11-40.50 6.76-40.76 8.45-40.76L8.45 0.07L12.42 0.07L12.42-21.58L29.77-21.58L29.77-25.29L12.42-25.29L12.42-40.76ZM40.82-30.68C42.58-28.93 43.42-26.39 43.42-22.95L43.42 0L47.00 0L47.00-23.21C48.10-25.22 49.66-26.98 50.77-27.89C52.20-29.05 53.82-29.57 56.29-29.57C57.14-29.57 58.18-29.51 59.93-29.12L59.93-32.50C57.53-32.95 57.01-33.02 56.16-33.02C54.15-33.02 52.20-32.63 50.57-31.59C49.14-30.68 47.71-29.05 46.61-27.11C46.09-29.51 45.05-31.33 43.03-32.83ZM78.46-33.02C68.70-33.02 62.27-25.68 62.27-16.05C62.27-6.44 68.70 0.65 78.39 0.65C87.88 0.65 94.58-6.17 94.58-16.12C94.58-25.94 88.01-33.02 78.46-33.02ZM78.46-29.64C86.00-29.64 90.87-24.44 90.87-16.38C90.87-8.64 86.39-2.73 78.46-2.73C70.78-2.73 65.98-8.19 65.98-16.12C65.98-23.66 70.33-29.64 78.46-29.64ZM100.49-30.68C102.24-28.93 103.09-26.39 103.09-22.95L103.09 0L106.66 0L106.66-23.07C109.59-26.98 112.51-29.64 117.39-29.64C122.33-29.64 124.60-27.17 124.60-21.84L124.60-5.00C124.60-1.89 126.94 0.84 130.45 0.84C132.53 0.84 134.09-0.07 135.26-1.76L132.34-3.71C131.82-3.06 131.17-2.73 130.52-2.73C129.41-2.73 128.18-3.58 128.18-5.00L128.18-23.53C127.79-30.03 124.08-33.02 117.71-33.02C113.16-33.02 109.39-31.33 106.27-26.85C105.82-29.25 104.78-31.39 102.70-32.83ZM145.08-32.37L145.08-40.56L141.50-40.56L141.50-9.29C141.50-3.31 143.65 0.65 149.63 0.65C153.72 0.65 156.52-1.24 158.47-4.62L155.81-6.57C154.44-3.97 152.16-2.73 149.63-2.73C145.93-2.73 145.08-5.27 145.08-9.29L145.08-28.80L155.35-28.80L155.35-32.37ZM188.17-5.85C184.92-4.16 181.80-2.73 177.77-2.73C171.21-2.73 167.89-6.44 167.11-13L174.78-13C183.43-13 189.08-16.51 189.08-23.01C189.08-29.19 183.88-33.02 177.51-33.02C167.31-33.02 163.21-23.34 163.21-14.95C163.21-6.11 167.76 0.65 177.77 0.65C182.45 0.65 186.48-0.84 189.86-3.12ZM166.92-16.38C166.92-21.64 169.91-29.84 177.71-29.84C181.67-29.84 185.44-27.69 185.44-23.07C185.44-18.07 180.89-16.38 174.78-16.38ZM195.78-30.68C197.53-28.93 198.38-26.39 198.38-22.95L198.38 0L201.95 0L201.95-23.07C204.88-26.98 207.80-29.64 212.68-29.64C217.62-29.64 219.89-27.17 219.89-21.84L219.89-5.00C219.89-1.89 222.23 0.84 225.74 0.84C227.82 0.84 229.38-0.07 230.55-1.76L227.63-3.71C227.11-3.06 226.46-2.73 225.81-2.73C224.70-2.73 223.47-3.58 223.47-5.00L223.47-23.53C223.08-30.03 219.38-33.02 213.00-33.02C208.45-33.02 204.68-31.33 201.56-26.85C201.11-29.25 200.07-31.39 197.99-32.83ZM261.37-47.26L257.79-47.26L257.79-32.44C255.45-32.76 251.94-33.02 249.99-33.02C240.05-33.02 234.13-25.94 234.13-15.99C234.13-7.02 238.94 0.65 248.11 0.65C252.20 0.65 255.78-0.91 257.86-4.42C258.25-1.56 260.72 0.65 263.70 0.65C265.39 0.65 267.28-0.07 268.45-1.95L265.52-3.97C265.07-3.25 264.42-2.93 263.70-2.93C262.41-2.93 261.37-4.03 261.37-5.20ZM257.79-12.22C257.79-10.60 257.47-9.23 256.88-8.06C255.25-4.75 252.00-2.73 248.11-2.73C241.22-2.73 237.84-9.04 237.84-16.45C237.84-23.98 241.28-29.64 251.36-29.64C254.41-29.64 256.43-29.12 257.79-28.99Z" fill="#000" transform="translate(-137,0)"></path><path d="M7.67 52.15C5.72 52.15 4.09 52.99 2.93 54.16C1.43 55.59 0.91 57.22 0.91 58.98L4.55 58.98C4.55 58.59 4.62 57.61 5.40 56.83C6.17 56.05 7.54 55.79 9.04 55.79L9.04 97L10.34 97.19L12.09 97.33C12.80 97.39 16.32 97.58 19.50 97.58C37.96 97.58 47.71 90.95 47.71 75.61C47.71 61.96 39.98 53.32 27.11 52.15ZM13 55.79L26.46 55.79C37.05 56.31 43.81 63.72 43.81 75.03C43.81 87.31 35.88 94.08 24.12 94.08C21.84 94.08 14.63 93.81 13 93.75ZM79.95 91.15C76.70 92.84 73.58 94.27 69.55 94.27C62.98 94.27 59.67 90.56 58.89 84L66.56 84C75.21 84 80.86 80.49 80.86 73.99C80.86 67.81 75.66 63.98 69.29 63.98C59.09 63.98 54.99 73.66 54.99 82.05C54.99 90.89 59.54 97.65 69.55 97.65C74.23 97.65 78.26 96.16 81.64 93.88ZM58.70 80.62C58.70 75.36 61.69 67.16 69.48 67.16C73.45 67.16 77.22 69.31 77.22 73.92C77.22 78.93 72.67 80.62 66.56 80.62ZM86.91 66.38C88.20 67.10 89.50 68.59 90.09 70.03L99.00 97L102.63 97L113.23 64.56L109.66 64.56L100.81 91.54L93.92 70.48C93.02 67.69 91.39 65.15 88.79 63.46ZM142.68 91.15C139.43 92.84 136.31 94.27 132.28 94.27C125.71 94.27 122.39 90.56 121.61 84L129.28 84C137.93 84 143.59 80.49 143.59 73.99C143.59 67.81 138.38 63.98 132.01 63.98C121.81 63.98 117.72 73.66 117.72 82.05C117.72 90.89 122.27 97.65 132.28 97.65C136.95 97.65 140.99 96.16 144.37 93.88ZM121.42 80.62C121.42 75.36 124.41 67.16 132.21 67.16C136.18 67.16 139.94 69.31 139.94 73.92C139.94 78.93 135.40 80.62 129.28 80.62ZM156 49.81L152.42 49.81L152.42 91.73C152.42 94.92 155.02 97.58 158.14 97.58C160.03 97.58 161.98 96.61 163.08 94.98L160.09 93.03C159.64 93.69 158.92 94.01 158.27 94.01C157.17 94.01 156 93.17 156 91.73ZM182.84 63.98C173.09 63.98 166.66 71.33 166.66 80.94C166.66 90.56 173.09 97.65 182.78 97.65C192.27 97.65 198.97 90.83 198.97 80.88C198.97 71.06 192.40 63.98 182.84 63.98ZM182.84 67.36C190.38 67.36 195.26 72.56 195.26 80.62C195.26 88.36 190.78 94.27 182.84 94.27C175.18 94.27 170.37 88.81 170.37 80.88C170.37 73.34 174.72 67.36 182.84 67.36ZM204.88 66.32C206.64 68.08 207.48 70.61 207.48 74.06L207.48 113.97L211.06 113.97L211.06 97.06C213.40 97.39 216.84 97.65 218.79 97.65C228.87 97.65 234.65 90.56 234.65 80.62C234.65 71.65 229.97 63.98 220.68 63.98C216.45 63.98 212.55 65.54 210.53 69.63C210.02 67.56 209.17 65.73 207.09 64.17ZM211.06 75.68C211.44 70.67 216.06 67.36 220.81 67.36C227.31 67.36 230.94 73.60 230.94 81.01C230.94 88.81 226.92 94.27 218.47 94.27C217.49 94.27 216.39 94.20 211.06 93.69ZM266.83 91.15C263.58 92.84 260.46 94.27 256.43 94.27C249.86 94.27 246.55 90.56 245.77 84L253.44 84C262.08 84 267.74 80.49 267.74 73.99C267.74 67.81 262.54 63.98 256.17 63.98C245.96 63.98 241.87 73.66 241.87 82.05C241.87 90.89 246.42 97.65 256.43 97.65C261.11 97.65 265.13 96.16 268.52 93.88ZM245.57 80.62C245.57 75.36 248.56 67.16 256.36 67.16C260.33 67.16 264.10 69.31 264.10 73.92C264.10 78.93 259.55 80.62 253.44 80.62ZM275.08 66.32C276.84 68.08 277.68 70.61 277.68 74.06L277.68 97L281.25 97L281.25 73.80C282.36 71.78 283.92 70.03 285.03 69.11C286.46 67.94 288.08 67.42 290.55 67.42C291.40 67.42 292.44 67.49 294.19 67.88L294.19 64.50C291.79 64.05 291.27 63.98 290.42 63.98C288.41 63.98 286.46 64.37 284.83 65.41C283.40 66.32 281.97 67.94 280.87 69.89C280.35 67.49 279.31 65.67 277.29 64.17Z" fill="#000" transform="translate(-150,0)"></path></g></g></g></svg>