<svg width="20" height="20" viewBox="0 0 20 20" fill="none" xmlns="http://www.w3.org/2000/svg">
<path d="M19.2735 0.96134L15.211 0.0238594C14.7696 -0.077701 14.3165 0.152763 14.1368 0.566817L12.2619 4.94173C12.0978 5.32453 12.2072 5.77374 12.5314 6.03546L14.8985 7.97292C13.4923 10.969 11.0353 13.4611 7.97681 14.8947L6.03935 12.5275C5.77373 12.2033 5.32842 12.0939 4.94562 12.258L0.570708 14.1329C0.152748 14.3165 -0.0777165 14.7697 0.0238439 15.2111L0.961325 19.2735C1.05898 19.6953 1.43397 20 1.87537 20C11.8791 20 20 11.8947 20 1.87538C20 1.43789 19.6992 1.05899 19.2735 0.96134Z" fill="#558476"/>
</svg>
