<svg width="299" height="258" viewBox="0 0 299 258" fill="none" xmlns="http://www.w3.org/2000/svg">
<path d="M32.5749 136.431C25.5739 140.33 22.0286 145.685 23.5224 153.118C24.3494 149.591 26.3048 146.429 29.0552 143.511C28.4076 147.468 27.0677 150.931 24.7597 153.734C31.5875 150.425 33.7032 144.371 32.5749 136.431ZM69.6439 199.596C66.2332 206.856 66.4768 213.256 72.0224 218.432C70.644 215.078 70.3748 211.371 70.9197 207.401C72.6956 210.986 73.6316 214.59 73.388 218.207C77.0039 211.537 75.1895 205.387 69.6439 199.596ZM60.835 190.867C56.6935 197.736 56.2703 204.136 61.2518 209.851C60.226 206.375 60.3478 202.655 61.2966 198.768C62.6943 202.52 63.252 206.195 62.6366 209.774C66.9192 203.514 65.7524 197.204 60.835 190.867ZM46.1536 170.922C40.6849 176.784 38.9475 182.96 42.6531 189.585C42.3646 185.974 43.2494 182.357 44.9804 178.746C45.5766 182.709 45.3586 186.423 44.0187 189.796C49.5002 184.544 49.6541 178.137 46.1536 170.922ZM52.975 181.279C48.141 187.68 47.0576 193.997 51.4235 200.205C50.7568 196.639 51.2697 192.958 52.616 189.18C53.6161 193.061 53.7892 196.78 52.8019 200.263C57.7128 194.484 57.2063 188.084 52.975 181.279ZM40.4413 159.916C34.3956 165.175 32.0299 171.14 35.0239 178.117C35.1073 174.488 36.3638 170.992 38.4603 167.574C38.6398 171.582 38.0435 175.257 36.3574 178.464C42.3582 173.814 43.1788 167.446 40.4413 159.916ZM35.8958 148.379C29.3372 152.99 26.3689 158.672 28.6192 165.913C29.0808 162.309 30.6964 158.967 33.1326 155.78C32.8954 159.782 31.9209 163.367 29.9142 166.388C36.3638 162.398 37.8384 156.158 35.8958 148.379ZM83.633 225.852C81.9084 222.658 81.2608 218.996 81.3891 214.994C83.5304 218.38 84.8318 221.863 84.9665 225.486C87.8707 218.477 85.4281 212.551 79.3119 207.369C76.6705 214.936 77.5745 221.279 83.633 225.852ZM32.8377 180.535C29.2154 180.446 25.715 179.189 22.3043 177.098C26.3048 176.918 29.972 177.515 33.1839 179.195C28.5423 173.198 22.1824 172.371 14.6494 175.11C19.9129 181.164 25.8752 183.524 32.8377 180.535ZM30.5105 124.201C23.1441 127.356 19.0666 132.307 19.7783 139.868C20.9707 136.444 23.2403 133.494 26.2791 130.883C25.2213 134.751 23.5288 138.06 20.9451 140.606C28.0807 138.021 30.8118 132.211 30.5105 124.201ZM72.0865 231.278C75.4716 229.136 78.9528 227.834 82.5751 227.699C75.5678 224.794 69.6375 227.237 64.4573 233.356C72.0288 235.998 78.3758 235.094 82.9341 229.027C79.7478 230.758 76.0871 231.406 72.0865 231.278ZM40.7298 192.22C37.1139 192.515 33.5045 191.618 29.895 189.892C33.8571 189.302 37.5691 189.514 40.9414 190.854C35.6971 185.377 29.2924 185.217 22.0863 188.719C27.9396 194.183 34.1071 195.914 40.7298 192.22ZM26.2022 168.093C22.6056 167.638 19.2526 166.022 16.0791 163.578C20.0732 163.809 23.6698 164.791 26.683 166.798C22.6889 160.353 16.4509 158.871 8.67423 160.821C13.2838 167.382 18.9641 170.345 26.2022 168.093ZM49.7887 203.02C46.2241 203.687 42.5377 203.181 38.768 201.834C42.6467 200.827 46.3587 200.66 49.8464 201.642C44.07 196.729 37.6781 197.242 30.8695 201.475C37.2678 206.304 43.5891 207.388 49.7887 203.02ZM48.8334 212.782C52.5904 211.377 56.2639 210.825 59.8349 211.448C53.5777 207.157 47.2691 208.331 40.9414 213.25C47.8013 217.393 54.1995 217.816 59.9118 212.826C56.4434 213.859 52.725 213.731 48.8334 212.782ZM59.9759 222.632C63.5662 220.856 67.1628 219.92 70.7787 220.163C64.1111 216.546 57.9629 218.361 52.1736 223.915C59.431 227.327 65.8357 227.083 71.0031 221.529C67.6565 222.915 63.9444 223.178 59.9759 222.632ZM20.8938 155.036C17.3613 154.202 14.2006 152.253 11.29 149.495C15.2456 150.143 18.7076 151.489 21.5093 153.792C18.2011 146.968 12.1491 144.852 4.2121 145.98C8.11006 152.99 13.4569 156.524 20.8938 155.036ZM42.9737 30.6108C45.5317 29.5975 48.3462 29.4436 51.3466 29.899C48.609 31.2073 45.8651 31.8743 43.1275 31.6434C48.141 34.4588 52.8276 33.1569 57.2769 29.0203C51.8146 26.3524 46.955 26.4614 42.9737 30.6108ZM24.7084 105.095C22.8813 108.661 20.5412 111.547 17.4831 113.503C24.9905 112.451 28.8628 107.334 30.222 99.4323C22.362 100.997 17.3485 104.999 16.4894 112.535C18.3742 109.437 21.1951 107.019 24.7084 105.095ZM52.3211 36.5496C46.128 34.1061 40.8324 34.6448 36.8382 39.5189C39.5437 38.1978 42.6018 37.7809 45.9228 38.0182C43.0442 39.6921 40.1079 40.6477 37.0947 40.6413C42.8134 43.2836 47.8141 41.4494 52.3211 36.5496ZM49.4874 22.6134C51.8723 21.8759 54.4368 21.9336 57.1294 22.5557C54.5522 23.5498 52.0198 23.9602 49.5515 23.5626C53.8982 26.4742 58.2385 25.6213 62.566 22.1773C57.809 19.3683 53.3917 19.131 49.4874 22.6134ZM16.9574 141.497C13.5339 140.304 10.5912 138.034 7.98183 134.994C11.8477 136.052 15.1559 137.746 17.6947 140.33C15.111 133.192 9.31534 130.466 1.30145 130.761C4.46213 138.13 9.41151 142.209 16.9574 141.497ZM56.3409 15.392C58.5206 14.8982 60.8094 15.1162 63.1687 15.8538C60.7966 16.5656 58.5142 16.7644 56.3344 16.245C60.0208 19.131 63.9573 18.6628 68.0475 15.8858C63.9829 13.0575 60.0593 12.5445 56.3409 15.392ZM62.534 10.287C65.0087 12.4932 67.8039 12.3328 70.8235 10.5563C68.0796 8.37581 65.3292 7.83709 62.5725 9.68413C64.1368 9.43401 65.7459 9.69054 67.3744 10.3191C65.669 10.7103 64.047 10.7487 62.534 10.287ZM47.8589 44.8933C40.8324 42.7897 35.0688 43.8736 31.1388 49.6007C33.9853 47.8948 37.3063 47.1572 40.9734 47.1059C37.9666 49.2031 34.838 50.5371 31.5298 50.8064C38.0499 53.1729 43.3712 50.6974 47.8589 44.8933ZM18.5153 127.144C25.8752 125.31 29.1898 119.827 29.7283 111.823C22.0735 114.202 17.5023 118.698 17.4318 126.285C18.9705 123.001 21.5349 120.301 24.8302 118.025C23.3749 121.764 21.349 124.88 18.5153 127.144ZM26.2791 60.1507C28.9654 58.201 32.2094 57.1749 35.8573 56.8093C33.0493 59.163 30.0425 60.7663 26.7728 61.3243C33.4788 63.1072 38.5628 60.1763 42.5249 54.0067C35.3381 52.5188 29.6898 54.1029 26.2791 60.1507ZM18.9448 84.9703C21.3682 82.3793 24.561 80.6348 28.3115 79.5061C25.8432 82.546 23.0159 84.8356 19.7013 86.0926C27.1062 86.5992 31.8376 82.4819 34.7354 75.1899C26.8946 75.113 21.2913 77.9284 18.9448 84.9703ZM25.933 92.2173C23.7404 95.5715 21.1182 98.2074 17.8806 99.8364C25.4585 99.567 29.8373 94.8788 32.0107 87.1572C24.0288 87.9011 18.6307 91.3579 16.9959 98.7717C19.1756 95.8793 22.2402 93.7693 25.933 92.2173ZM22.3491 71.4445C24.9713 69.1614 28.2602 67.7825 32.0363 67.0642C29.318 69.7771 26.3304 71.7331 22.971 72.6182C30.1386 73.8624 35.1714 70.3286 38.7359 63.5177C31.1003 62.6326 25.3495 64.8131 22.3491 71.4445ZM68.8041 3.48244C67.8232 4.91902 66.6563 6.03494 65.2395 6.70834C68.5284 6.66345 70.4709 4.67531 71.4839 1.34679C68.0155 1.5905 65.6434 3.03992 64.8612 6.24017C65.8357 5.0024 67.182 4.11736 68.8041 3.48244ZM13.8095 99.4644C10.9181 97.2774 8.80887 94.2119 7.26379 90.5178C10.6168 92.7047 13.2518 95.3342 14.8738 98.5729C14.6045 90.9924 9.91799 86.6121 2.20542 84.4444C2.9427 92.429 6.40471 97.829 13.8095 99.4644ZM15.7777 85.323C13.1812 82.8987 11.4438 79.7049 10.3091 75.9595C13.3479 78.4286 15.6431 81.2569 16.8997 84.5726C17.4062 77.1652 13.2902 72.4258 6.0008 69.5334C5.91746 77.3769 8.73835 82.9821 15.7777 85.323ZM19.2205 71.4574C16.9382 68.8407 15.5662 65.5443 14.8417 61.7668C17.5536 64.4861 19.509 67.4683 20.3937 70.8353C21.6375 63.6716 18.105 58.6307 11.2964 55.0649C10.4181 62.7096 12.5978 68.4623 19.2205 71.4574ZM23.3044 59.9069C21.3554 57.2133 20.3296 53.9746 19.9642 50.3254C22.3171 53.1409 23.9134 56.1423 24.4712 59.4195C26.2599 52.7112 23.33 47.6254 17.1561 43.6556C15.6752 50.8449 17.2587 56.495 23.3044 59.9069ZM14.4571 127.619C11.1746 126.08 8.4819 123.514 6.20596 120.218C9.93723 121.667 13.053 123.7 15.3161 126.535C13.4826 119.166 8.00107 115.857 0 115.318C2.37211 122.976 6.87271 127.548 14.4571 127.619ZM13.3992 113.554C10.2963 111.682 7.87926 108.854 5.95593 105.345C9.52051 107.173 12.4119 109.514 14.3609 112.567C13.3031 105.05 8.1934 101.183 0.294915 99.8235C1.86564 107.686 5.86617 112.701 13.3992 113.554ZM39.7489 21.2923C41.0568 24.0308 41.7235 26.7757 41.4991 29.5206C44.3136 24.4989 43.0121 19.8236 38.8706 15.3599C36.2035 20.8241 36.3125 25.6854 40.4669 29.6681C39.4476 27.1092 39.2873 24.2937 39.7489 21.2923ZM28.2025 49.0941C26.4971 46.253 25.7534 42.9308 25.7086 39.2624C27.805 42.2703 29.1321 45.4 29.4078 48.7093C31.7735 42.1805 29.2988 36.8638 23.4967 32.3681C21.3875 39.4035 22.4774 45.1691 28.2025 49.0941ZM54.6547 7.24706C55.3664 9.61999 55.5651 11.9096 55.0458 14.0901C57.9308 10.4024 57.4628 6.47105 54.6804 2.37293C51.8531 6.43898 51.3466 10.3639 54.1931 14.0837C53.6931 11.8967 53.911 9.61358 54.6547 7.24706ZM61.3928 3.45037C61.7903 5.15631 61.8288 6.77889 61.3607 8.29244C63.5662 5.8233 63.4059 3.02068 61.63 0C59.4502 2.74491 58.9117 5.49622 60.7581 8.25396C60.5017 6.68269 60.7645 5.07935 61.3928 3.45037ZM47.0896 13.8207C48.0833 16.4053 48.4936 18.9386 48.0961 21.4013C51.0004 17.0531 50.1477 12.7112 46.7114 8.38222C43.9097 13.1473 43.6661 17.5597 47.1473 21.4654C46.41 19.0732 46.4677 16.5143 47.0896 13.8207ZM34.1584 38.8007C32.8377 36.0942 32.421 33.0287 32.6582 29.713C34.3251 32.5926 35.2868 35.5299 35.2739 38.5441C37.9153 32.817 36.0881 27.821 31.1901 23.3125C28.7474 29.5013 29.286 34.8051 34.1584 38.8007ZM86.2166 227.596C75.5357 221.856 65.7203 214.706 57.0397 206.375C15.5918 166.612 4.18005 104.98 28.5487 53.4615C36.7998 36.0237 48.827 20.3687 64.047 7.76655C64.4701 7.41381 64.2842 7.14445 64.2714 7.12521C64.2522 7.10597 64.0214 6.84944 63.579 7.215C48.2821 19.8877 36.1843 35.6325 27.8948 53.1537C3.33378 105.082 14.2006 167.285 56.0395 207.426C64.7907 215.821 74.6766 223.03 85.4409 228.828C85.9666 229.052 86.9667 229.713 87.2937 229.104C87.6463 228.43 86.6398 227.853 86.2166 227.596Z" fill="#C76675"/>
<path d="M265.741 136.431C264.612 144.364 266.728 150.425 273.556 153.734C271.248 150.931 269.908 147.468 269.26 143.511C272.017 146.423 273.966 149.591 274.793 153.118C276.287 145.685 272.748 140.337 265.741 136.431ZM227.396 207.401C227.941 211.371 227.678 215.084 226.293 218.432C231.845 213.256 232.089 206.856 228.671 199.596C223.126 205.387 221.312 211.537 224.927 218.207C224.69 214.59 225.62 210.986 227.396 207.401ZM237.487 190.867C232.569 197.204 231.403 203.514 235.685 209.767C235.07 206.195 235.621 202.514 237.025 198.768C237.974 202.661 238.096 206.375 237.064 209.851C242.051 204.136 241.628 197.736 237.487 190.867ZM252.168 170.922C248.668 178.137 248.822 184.544 254.303 189.79C252.963 186.416 252.752 182.703 253.341 178.74C255.072 182.357 255.957 185.967 255.669 189.578C259.374 182.96 257.637 176.784 252.168 170.922ZM245.347 181.279C241.115 188.084 240.603 194.484 245.513 200.263C244.533 196.78 244.699 193.061 245.699 189.18C247.046 192.958 247.559 196.639 246.892 200.205C251.264 193.997 250.181 187.68 245.347 181.279ZM263.298 178.117C266.292 171.14 263.926 165.182 257.881 159.923C255.143 167.452 255.964 173.821 261.958 178.464C260.278 175.257 259.676 171.582 259.855 167.574C261.958 170.986 263.215 174.488 263.298 178.117ZM262.42 148.379C260.477 156.158 261.952 162.392 268.401 166.388C266.394 163.367 265.42 159.782 265.183 155.78C267.619 158.961 269.235 162.309 269.696 165.913C271.946 158.672 268.978 152.99 262.42 148.379ZM216.933 214.994C217.061 218.996 216.413 222.658 214.689 225.852C220.747 221.286 221.651 214.936 219.01 207.369C212.894 212.557 210.451 218.483 213.355 225.493C213.49 221.856 214.785 218.38 216.933 214.994ZM265.138 179.195C268.35 177.508 272.017 176.918 276.018 177.098C272.607 179.195 269.106 180.452 265.484 180.535C272.453 183.524 278.409 181.17 283.672 175.116C276.139 172.371 269.78 173.198 265.138 179.195ZM278.537 139.862C279.249 132.301 275.178 127.35 267.805 124.201C267.504 132.211 270.235 138.021 277.37 140.6C274.787 138.053 273.088 134.744 272.036 130.877C275.082 133.487 277.345 136.437 278.537 139.862ZM215.747 227.699C219.369 227.834 222.85 229.136 226.235 231.278C222.235 231.406 218.574 230.752 215.388 229.027C219.952 235.094 226.299 235.998 233.865 233.356C228.678 227.237 222.748 224.794 215.747 227.699ZM257.387 190.848C260.759 189.508 264.465 189.302 268.433 189.886C264.824 191.618 261.208 192.509 257.598 192.214C264.221 195.915 270.389 194.176 276.255 188.712C269.036 185.211 262.625 185.371 257.387 190.848ZM271.632 166.798C274.652 164.791 278.242 163.809 282.236 163.578C279.063 166.016 275.71 167.632 272.113 168.093C279.351 170.351 285.038 167.388 289.641 160.821C281.871 158.871 275.633 160.353 271.632 166.798ZM248.469 201.635C251.957 200.654 255.675 200.821 259.547 201.828C255.778 203.174 252.091 203.681 248.527 203.014C254.726 207.388 261.048 206.298 267.446 201.462C260.637 197.236 254.245 196.723 248.469 201.635ZM238.48 211.448C242.051 210.832 245.731 211.383 249.482 212.788C245.59 213.737 241.872 213.865 238.404 212.826C244.116 217.816 250.514 217.393 257.374 213.25C251.046 208.331 244.738 207.157 238.48 211.448ZM227.537 220.163C231.153 219.92 234.756 220.856 238.339 222.632C234.371 223.171 230.659 222.908 227.312 221.523C232.48 227.077 238.884 227.321 246.142 223.909C240.353 218.361 234.204 216.546 227.537 220.163ZM276.813 153.792C279.608 151.489 283.076 150.149 287.032 149.495C284.128 152.253 280.961 154.202 277.428 155.036C284.865 156.524 290.205 152.99 294.11 145.98C286.173 144.852 280.121 146.968 276.813 153.792ZM255.342 30.6108C251.36 26.455 246.501 26.346 241.039 29.0203C245.488 33.1569 250.174 34.4652 255.188 31.6498C252.444 31.8807 249.706 31.2073 246.969 29.9054C249.969 29.4436 252.79 29.6039 255.342 30.6108ZM281.826 112.535C280.967 104.999 275.96 100.997 268.093 99.4323C269.453 107.334 273.325 112.451 280.832 113.503C277.781 111.547 275.441 108.661 273.607 105.102C277.12 107.019 279.948 109.437 281.826 112.535ZM261.477 39.5189C257.483 34.6448 252.187 34.1061 245.994 36.5496C250.501 41.4494 255.502 43.2836 261.221 40.6413C258.214 40.6541 255.278 39.6921 252.393 38.0182C255.714 37.7809 258.778 38.1978 261.477 39.5189ZM248.828 22.6134C244.924 19.131 240.513 19.3747 235.749 22.1773C240.077 25.6213 244.417 26.4742 248.764 23.5626C246.296 23.9602 243.763 23.5498 241.186 22.5557C243.879 21.9272 246.443 21.8759 248.828 22.6134ZM280.621 140.33C283.166 137.746 286.474 136.052 290.334 134.994C287.731 138.034 284.782 140.304 281.358 141.497C288.904 142.216 293.853 138.13 297.008 130.761C289 130.46 283.204 133.192 280.621 140.33ZM241.981 15.392C238.263 12.5445 234.339 13.0575 230.274 15.8858C234.371 18.6628 238.301 19.131 241.987 16.245C239.814 16.7709 237.525 16.572 235.153 15.8538C237.512 15.1162 239.801 14.8982 241.981 15.392ZM235.749 9.67772C232.993 7.83068 230.242 8.37581 227.498 10.5499C230.518 12.3264 233.313 12.4868 235.788 10.2806C234.275 10.7423 232.653 10.7038 230.947 10.3062C232.576 9.68413 234.185 9.4276 235.749 9.67772ZM250.463 44.8933C254.951 50.6974 260.272 53.1729 266.792 50.8064C263.484 50.5371 260.355 49.2031 257.348 47.1059C261.009 47.1572 264.337 47.8948 267.183 49.6007C263.253 43.8736 257.489 42.7897 250.463 44.8933ZM280.89 126.285C280.819 118.698 276.248 114.202 268.593 111.823C269.132 119.827 272.447 125.31 279.807 127.144C276.973 124.88 274.947 121.77 273.492 118.031C276.787 120.301 279.351 123.001 280.89 126.285ZM255.797 54.0003C259.765 60.1763 264.843 63.1072 271.549 61.3179C268.279 60.7599 265.273 59.1566 262.464 56.8029C266.112 57.1684 269.356 58.201 272.043 60.1507C268.632 54.1029 262.984 52.5188 255.797 54.0003ZM263.586 75.1963C266.484 82.4883 271.216 86.6056 278.62 86.099C275.306 84.842 272.479 82.5524 270.01 79.5125C273.761 80.6413 276.954 82.3857 279.377 84.9767C277.031 77.9284 271.427 75.113 263.586 75.1963ZM281.326 98.7717C279.691 91.3579 274.293 87.9011 266.311 87.1572C268.485 94.8724 272.863 99.567 280.441 99.8364C277.204 98.2074 274.575 95.5715 272.389 92.2173C276.082 93.7693 279.14 95.8793 281.326 98.7717ZM259.586 63.5112C263.15 70.3222 268.183 73.8559 275.351 72.6118C271.991 71.7267 269.004 69.7706 266.285 67.0578C270.062 67.7761 273.351 69.155 275.973 71.4381C272.972 64.8131 267.222 62.6326 259.586 63.5112ZM233.082 6.70834C231.665 6.03494 230.499 4.91902 229.518 3.48244C231.133 4.12377 232.486 5.00881 233.461 6.24017C232.678 3.03992 230.306 1.59691 226.838 1.34679C227.857 4.6689 229.793 6.66345 233.082 6.70834ZM283.448 98.5729C285.076 95.3342 287.711 92.7047 291.058 90.5178C289.513 94.2119 287.397 97.271 284.512 99.4644C291.917 97.829 295.379 92.429 296.123 84.4444C288.404 86.6185 283.717 90.9924 283.448 98.5729ZM281.422 84.5726C282.672 81.2569 284.974 78.4286 288.013 75.9595C286.884 79.7113 285.141 82.9052 282.544 85.323C289.583 82.9821 292.404 77.3769 292.321 69.5269C285.032 72.4258 280.916 77.1652 281.422 84.5726ZM277.928 70.8353C278.813 67.4747 280.768 64.4861 283.48 61.7668C282.762 65.5378 281.384 68.8343 279.101 71.4574C285.724 68.4623 287.904 62.7096 287.025 55.0713C280.21 58.6307 276.684 63.6716 277.928 70.8353ZM273.851 59.4131C274.408 56.1359 276.011 53.1345 278.358 50.319C277.992 53.9682 276.96 57.2133 275.017 59.9005C281.063 56.4886 282.647 50.8385 281.166 43.6427C274.992 47.619 272.062 52.7048 273.851 59.4131ZM283.865 127.619C291.449 127.548 295.943 122.982 298.322 115.325C290.321 115.857 284.839 119.173 283.006 126.541C285.269 123.707 288.385 121.674 292.116 120.224C289.84 123.514 287.147 126.073 283.865 127.619ZM283.954 112.567C285.91 109.514 288.801 107.173 292.359 105.345C290.436 108.86 288.019 111.688 284.916 113.561C292.449 112.701 296.45 107.693 298.02 99.8299C290.122 101.183 285.012 105.057 283.954 112.567ZM258.573 21.2923C259.028 24.2937 258.874 27.1092 257.861 29.6681C262.016 25.6854 262.125 20.8241 259.458 15.3599C255.316 19.8172 254.008 24.4989 256.829 29.5206C256.598 26.7757 257.265 24.0308 258.573 21.2923ZM268.914 48.7093C269.183 45.4 270.517 42.2703 272.613 39.2624C272.568 42.9244 271.825 46.2465 270.119 49.0941C275.844 45.1691 276.928 39.4035 274.825 32.3681C269.023 36.8638 266.548 42.1805 268.914 48.7093ZM243.667 7.24706C244.404 9.61358 244.629 11.8967 244.129 14.0837C246.975 10.3639 246.469 6.43898 243.641 2.37293C240.859 6.47105 240.391 10.4024 243.276 14.0901C242.757 11.9096 242.955 9.61358 243.667 7.24706ZM236.929 3.45037C237.557 5.07935 237.82 6.6891 237.564 8.25396C239.41 5.49622 238.872 2.74491 236.692 0C234.916 3.02068 234.756 5.81689 236.961 8.29244C236.493 6.77889 236.532 5.1499 236.929 3.45037ZM251.226 13.8207C251.848 16.5143 251.905 19.0732 251.168 21.4654C254.649 17.5597 254.406 13.1473 251.604 8.38222C248.168 12.7112 247.309 17.0466 250.219 21.4013C249.822 18.9322 250.232 16.3989 251.226 13.8207ZM265.664 29.713C265.901 33.0287 265.49 36.0942 264.163 38.8007C269.036 34.8051 269.574 29.5077 267.132 23.3125C262.227 27.821 260.4 32.8234 263.048 38.5441C263.035 35.5299 263.997 32.5926 265.664 29.713ZM270.427 53.1537C262.137 35.6325 250.04 19.8877 234.743 7.215C234.307 6.84944 234.07 7.10597 234.05 7.13162C234.038 7.15086 233.852 7.42022 234.275 7.77296C249.488 20.3816 261.522 36.0365 269.773 53.4744C294.142 104.986 282.724 166.625 241.282 206.387C232.601 214.718 222.786 221.863 212.105 227.609C211.682 227.866 210.675 228.443 211.041 229.116C211.368 229.726 212.362 229.065 212.894 228.841C223.652 223.043 233.544 215.834 242.295 207.439C284.121 167.285 294.994 105.082 270.427 53.1537Z" fill="#C76675"/>
<path d="M205.731 221.456C205.445 225.451 204.421 229.025 202.376 232.023C208.874 228.108 210.432 221.888 208.591 214.082C201.971 218.607 198.928 224.25 201.088 231.519C201.597 227.933 203.253 224.598 205.731 221.456Z" fill="#C76675"/>
<path d="M193.925 226.723C193.223 230.669 191.836 234.118 189.491 236.885C196.36 233.664 198.555 227.64 197.53 219.687C190.479 223.503 186.867 228.797 188.26 236.252C189.138 232.736 191.131 229.598 193.925 226.723Z" fill="#C76675"/>
<path d="M181.631 230.739C180.526 234.588 178.79 237.879 176.17 240.39C183.338 237.901 186.144 232.132 185.95 224.113C178.538 227.176 174.4 232.072 175.014 239.636C176.249 236.219 178.558 233.304 181.631 230.739Z" fill="#C76675"/>
<path d="M158.637 233.888C157.039 236.907 155.012 239.34 152.389 240.979C158.801 240.16 162.153 235.848 163.4 229.129C156.683 230.379 152.37 233.729 151.554 240.144C153.186 237.518 155.622 235.487 158.637 233.888Z" fill="#C76675"/>
<path d="M168.992 233.458C167.492 237.174 165.423 240.27 162.559 242.485C169.944 240.755 173.33 235.312 173.971 227.317C166.283 229.594 161.659 234.031 161.484 241.613C163.07 238.353 165.666 235.69 168.992 233.458Z" fill="#C76675"/>
<path d="M149.08 234.893C149.836 237.366 150.057 239.751 149.525 242.026C152.52 238.162 152.004 234.058 149.08 229.801C146.157 234.058 145.642 238.162 148.635 242.021C148.104 239.751 148.322 237.366 149.08 234.893Z" fill="#C76675"/>
<path d="M145.93 240.979C143.306 239.341 141.275 236.907 139.68 233.888C142.695 235.487 145.133 237.518 146.759 240.144C145.946 233.729 141.633 230.379 134.917 229.129C136.164 235.848 139.516 240.159 145.93 240.979Z" fill="#C76675"/>
<path d="M108.791 236.885C106.446 234.119 105.059 230.67 104.358 226.723C107.15 229.598 109.142 232.736 110.02 236.252C111.415 228.796 107.803 223.503 100.751 219.687C99.7274 227.64 101.921 233.664 108.791 236.885Z" fill="#C76675"/>
<path d="M122.112 240.39C119.492 237.879 117.752 234.588 116.649 230.739C119.723 233.304 122.031 236.219 123.268 239.636C123.882 232.072 119.742 227.176 112.333 224.113C112.139 232.131 114.945 237.901 122.112 240.39Z" fill="#C76675"/>
<path d="M135.721 242.485C132.857 240.27 130.789 237.174 129.288 233.458C132.613 235.69 135.212 238.353 136.794 241.612C136.621 234.03 131.998 229.593 124.311 227.317C124.949 235.313 128.336 240.755 135.721 242.485Z" fill="#C76675"/>
<path d="M95.9064 232.023C93.8606 229.025 92.8374 225.451 92.5489 221.456C95.03 224.598 96.686 227.933 97.1937 231.518C99.3536 224.249 96.3116 218.607 89.6921 214.082C87.8502 221.888 89.4081 228.108 95.9064 232.023Z" fill="#C76675"/>
<path d="M211.937 227.686C196.724 235.845 179.753 241.154 161.741 242.884C157.889 240.612 154.174 240.421 150.65 243.151C152.556 242.706 154.54 242.796 156.586 243.276C156.802 243.763 156.107 244.025 156.107 244.025C154.23 244.412 152.405 244.451 150.649 244.04C154.158 246.759 157.856 246.579 161.692 244.341C180.185 242.595 197.596 237.117 213.168 228.675C212.749 228.356 212.342 228.022 211.937 227.686Z" fill="#C76675"/>
<path d="M98.6099 244.581C101.479 241.787 104.618 239.789 108.137 238.917C100.681 237.518 95.3877 241.131 91.5763 248.184C99.528 249.209 105.549 247.017 108.767 240.144C106.002 242.491 102.553 243.883 98.6099 244.581Z" fill="#C76675"/>
<path d="M112.781 249.095C115.347 246.015 118.263 243.713 121.671 242.475C114.112 241.858 109.218 246 106.16 253.411C114.175 253.603 119.936 250.798 122.427 243.631C119.919 246.251 116.63 247.988 112.781 249.095Z" fill="#C76675"/>
<path d="M127.346 252.113C129.578 248.788 132.239 246.191 135.497 244.607C127.919 244.782 123.481 249.412 121.206 257.095C129.197 256.458 134.642 253.073 136.37 245.683C134.147 248.547 131.058 250.618 127.346 252.113Z" fill="#C76675"/>
<path d="M139.68 253.15C141.275 250.126 143.306 247.691 145.93 246.059C139.517 246.874 136.164 251.19 134.917 257.908C141.633 256.665 145.946 253.308 146.759 246.895C145.133 249.52 142.695 251.545 139.68 253.15Z" fill="#C76675"/>
<path d="M149.233 252.141C148.477 249.679 148.258 247.288 148.789 245.012C145.799 248.883 146.311 252.98 149.233 257.238C152.16 252.98 152.673 248.883 149.678 245.012C150.209 247.288 149.992 249.679 149.233 252.141Z" fill="#C76675"/>
<path d="M152.389 246.059C155.012 247.691 157.038 250.126 158.637 253.15C155.622 251.545 153.186 249.52 151.555 246.895C152.37 253.308 156.684 256.665 163.401 257.908C162.153 251.19 158.801 246.874 152.389 246.059Z" fill="#C76675"/>
<path d="M176.61 242.475C180.017 243.714 182.936 246.015 185.499 249.095C181.654 247.988 178.361 246.251 175.855 243.63C178.344 250.797 184.109 253.602 192.12 253.411C189.066 246 184.168 241.858 176.61 242.475Z" fill="#C76675"/>
<path d="M190.143 238.917C193.66 239.789 196.801 241.787 199.672 244.581C195.727 243.883 192.279 242.491 189.512 240.144C192.729 247.017 198.752 249.209 206.705 248.184C202.894 241.131 197.599 237.518 190.143 238.917Z" fill="#C76675"/>
<path d="M162.779 244.607C166.04 246.191 168.703 248.789 170.934 252.113C167.22 250.618 164.131 248.547 161.909 245.683C163.64 253.073 169.082 256.458 177.072 257.095C174.8 249.412 170.364 244.782 162.779 244.607Z" fill="#C76675"/>
<path d="M203.237 233.971C206.825 234.484 210.156 236.138 213.299 238.622C209.304 238.327 205.73 237.306 202.736 235.263C206.647 241.758 212.867 243.319 220.667 241.475C216.147 234.861 210.507 231.814 203.237 233.971Z" fill="#C76675"/>
<path d="M95.5454 235.263C92.5508 237.306 88.976 238.327 84.9819 238.622C88.1252 236.138 91.4551 234.484 95.0441 233.971C87.7739 231.814 82.1334 234.861 77.6136 241.475C85.4146 243.319 91.634 241.758 95.5454 235.263Z" fill="#C76675"/>
<path d="M142.184 243.86C142.184 243.86 141.275 243.549 141.237 243.244C143.452 242.655 145.605 242.512 147.664 242.999C144.071 240.214 140.276 240.465 136.34 242.861C118.478 241.122 101.64 235.868 86.5314 227.798C86.2859 228.213 86.0455 228.631 85.8102 229.052C101.303 237.333 118.595 242.685 136.943 244.368C140.664 246.437 144.253 246.523 147.664 243.888C145.897 244.297 144.065 244.254 142.184 243.86Z" fill="#C76675"/>
<mask id="path-27-outside-1_10_149" maskUnits="userSpaceOnUse" x="60.9313" y="63.1526" width="173" height="33" fill="black">
<rect fill="white" x="60.9313" y="63.1526" width="173" height="33"/>
<path d="M85.4345 68.3213V65.9868H66.2268C65.0151 65.9868 64.0149 66.487 63.1815 67.3208C62.3929 68.116 61.9313 69.1614 61.9313 70.3671H64.265C64.265 69.8284 64.515 69.2384 64.8484 68.9113C65.2651 68.488 65.6818 68.3213 66.7653 68.3213V94.5069H69.3105V80.622H80.4338V78.2427H69.3105V68.3213H85.4345ZM87.5181 74.7859C88.6464 75.9082 89.185 77.5372 89.185 79.7434V94.462H91.4801V79.5767C92.1854 78.2876 93.1855 77.1588 93.8971 76.5752C94.8139 75.8313 95.8525 75.4978 97.4361 75.4978C97.981 75.4978 98.6478 75.5363 99.7697 75.7864V73.6187C98.231 73.3301 97.8977 73.2852 97.3527 73.2852C96.0641 73.2852 94.8139 73.5353 93.7689 74.2023C92.8521 74.7859 91.9353 75.8313 91.2301 77.0755C90.8967 75.5363 90.23 74.369 88.9349 73.407L87.5181 74.7859ZM111.65 73.2852C105.392 73.2852 101.27 77.9926 101.27 84.1686C101.27 90.3318 105.392 94.8789 111.605 94.8789C117.689 94.8789 121.984 90.505 121.984 84.1237C121.984 77.8258 117.772 73.2852 111.65 73.2852ZM111.65 75.4529C116.483 75.4529 119.606 78.7878 119.606 83.957C119.606 88.9209 116.734 92.7112 111.65 92.7112C106.726 92.7112 103.648 89.2095 103.648 84.1237C103.648 79.2881 106.437 75.4529 111.65 75.4529ZM125.773 74.7859C126.895 75.9082 127.44 77.5372 127.44 79.7434V94.462H129.729V79.6664C131.607 77.1588 133.479 75.4529 136.608 75.4529C139.775 75.4529 141.23 77.037 141.23 80.4553V91.2553C141.23 93.2499 142.731 95.0007 144.981 95.0007C146.314 95.0007 147.315 94.4171 148.065 93.3333L146.193 92.0827C145.859 92.4995 145.442 92.7112 145.026 92.7112C144.314 92.7112 143.526 92.166 143.526 91.2553V79.3714C143.276 75.2028 140.897 73.2852 136.813 73.2852C133.896 73.2852 131.479 74.369 129.479 77.2422C129.19 75.703 128.524 74.3305 127.19 73.407L125.773 74.7859ZM154.36 73.702V68.4495H152.065V88.504C152.065 92.3392 153.444 94.8789 157.277 94.8789C159.9 94.8789 161.695 93.6667 162.945 91.499L161.239 90.2484C160.361 91.9159 158.899 92.7112 157.277 92.7112C154.905 92.7112 154.36 91.0822 154.36 88.504V75.9916H160.945V73.702H154.36ZM181.986 90.7102C179.902 91.7941 177.902 92.7112 175.318 92.7112C171.113 92.7112 168.984 90.3318 168.484 86.1247H173.401C178.947 86.1247 182.569 83.8736 182.569 79.7049C182.569 75.7415 179.235 73.2852 175.152 73.2852C168.612 73.2852 165.984 79.4933 165.984 84.8741C165.984 90.5435 168.901 94.8789 175.318 94.8789C178.319 94.8789 180.902 93.9233 183.069 92.461L181.986 90.7102ZM168.362 83.957C168.362 80.5835 170.279 75.3246 175.28 75.3246C177.819 75.3246 180.236 76.7035 180.236 79.6664C180.236 82.8731 177.319 83.957 173.401 83.957H168.362ZM186.865 74.7859C187.987 75.9082 188.532 77.5372 188.532 79.7434V94.462H190.82V79.6664C192.699 77.1588 194.571 75.4529 197.699 75.4529C200.867 75.4529 202.322 77.037 202.322 80.4553V91.2553C202.322 93.2499 203.822 95.0007 206.072 95.0007C207.406 95.0007 208.406 94.4171 209.156 93.3333L207.284 92.0827C206.951 92.4995 206.534 92.7112 206.117 92.7112C205.406 92.7112 204.617 92.166 204.617 91.2553V79.3714C204.367 75.2028 201.995 73.2852 197.905 73.2852C194.988 73.2852 192.571 74.369 190.57 77.2422C190.282 75.703 189.615 74.3305 188.282 73.407L186.865 74.7859ZM228.915 64.1526H226.62V73.6571C225.12 73.4519 222.869 73.2852 221.619 73.2852C215.247 73.2852 211.451 77.8258 211.451 84.2071C211.451 89.9598 214.535 94.8789 220.414 94.8789C223.036 94.8789 225.331 93.8784 226.665 91.6273C226.915 93.4615 228.498 94.8789 230.409 94.8789C231.492 94.8789 232.704 94.4171 233.454 93.2114L231.576 91.9159C231.287 92.3777 230.871 92.5829 230.409 92.5829C229.582 92.5829 228.915 91.8774 228.915 91.1271V64.1526ZM226.62 86.6249C226.62 87.6639 226.415 88.5425 226.037 89.2929C224.992 91.4157 222.908 92.7112 220.414 92.7112C215.997 92.7112 213.83 88.6643 213.83 83.9121C213.83 79.0828 216.035 75.4529 222.498 75.4529C224.453 75.4529 225.748 75.7864 226.62 75.8697V86.6249Z"/>
</mask>
<path d="M85.4345 68.3213V65.9868H66.2268C65.0151 65.9868 64.0149 66.487 63.1815 67.3208C62.3929 68.116 61.9313 69.1614 61.9313 70.3671H64.265C64.265 69.8284 64.515 69.2384 64.8484 68.9113C65.2651 68.488 65.6818 68.3213 66.7653 68.3213V94.5069H69.3105V80.622H80.4338V78.2427H69.3105V68.3213H85.4345ZM87.5181 74.7859C88.6464 75.9082 89.185 77.5372 89.185 79.7434V94.462H91.4801V79.5767C92.1854 78.2876 93.1855 77.1588 93.8971 76.5752C94.8139 75.8313 95.8525 75.4978 97.4361 75.4978C97.981 75.4978 98.6478 75.5363 99.7697 75.7864V73.6187C98.231 73.3301 97.8977 73.2852 97.3527 73.2852C96.0641 73.2852 94.8139 73.5353 93.7689 74.2023C92.8521 74.7859 91.9353 75.8313 91.2301 77.0755C90.8967 75.5363 90.23 74.369 88.9349 73.407L87.5181 74.7859ZM111.65 73.2852C105.392 73.2852 101.27 77.9926 101.27 84.1686C101.27 90.3318 105.392 94.8789 111.605 94.8789C117.689 94.8789 121.984 90.505 121.984 84.1237C121.984 77.8258 117.772 73.2852 111.65 73.2852ZM111.65 75.4529C116.483 75.4529 119.606 78.7878 119.606 83.957C119.606 88.9209 116.734 92.7112 111.65 92.7112C106.726 92.7112 103.648 89.2095 103.648 84.1237C103.648 79.2881 106.437 75.4529 111.65 75.4529ZM125.773 74.7859C126.895 75.9082 127.44 77.5372 127.44 79.7434V94.462H129.729V79.6664C131.607 77.1588 133.479 75.4529 136.608 75.4529C139.775 75.4529 141.23 77.037 141.23 80.4553V91.2553C141.23 93.2499 142.731 95.0007 144.981 95.0007C146.314 95.0007 147.315 94.4171 148.065 93.3333L146.193 92.0827C145.859 92.4995 145.442 92.7112 145.026 92.7112C144.314 92.7112 143.526 92.166 143.526 91.2553V79.3714C143.276 75.2028 140.897 73.2852 136.813 73.2852C133.896 73.2852 131.479 74.369 129.479 77.2422C129.19 75.703 128.524 74.3305 127.19 73.407L125.773 74.7859ZM154.36 73.702V68.4495H152.065V88.504C152.065 92.3392 153.444 94.8789 157.277 94.8789C159.9 94.8789 161.695 93.6667 162.945 91.499L161.239 90.2484C160.361 91.9159 158.899 92.7112 157.277 92.7112C154.905 92.7112 154.36 91.0822 154.36 88.504V75.9916H160.945V73.702H154.36ZM181.986 90.7102C179.902 91.7941 177.902 92.7112 175.318 92.7112C171.113 92.7112 168.984 90.3318 168.484 86.1247H173.401C178.947 86.1247 182.569 83.8736 182.569 79.7049C182.569 75.7415 179.235 73.2852 175.152 73.2852C168.612 73.2852 165.984 79.4933 165.984 84.8741C165.984 90.5435 168.901 94.8789 175.318 94.8789C178.319 94.8789 180.902 93.9233 183.069 92.461L181.986 90.7102ZM168.362 83.957C168.362 80.5835 170.279 75.3246 175.28 75.3246C177.819 75.3246 180.236 76.7035 180.236 79.6664C180.236 82.8731 177.319 83.957 173.401 83.957H168.362ZM186.865 74.7859C187.987 75.9082 188.532 77.5372 188.532 79.7434V94.462H190.82V79.6664C192.699 77.1588 194.571 75.4529 197.699 75.4529C200.867 75.4529 202.322 77.037 202.322 80.4553V91.2553C202.322 93.2499 203.822 95.0007 206.072 95.0007C207.406 95.0007 208.406 94.4171 209.156 93.3333L207.284 92.0827C206.951 92.4995 206.534 92.7112 206.117 92.7112C205.406 92.7112 204.617 92.166 204.617 91.2553V79.3714C204.367 75.2028 201.995 73.2852 197.905 73.2852C194.988 73.2852 192.571 74.369 190.57 77.2422C190.282 75.703 189.615 74.3305 188.282 73.407L186.865 74.7859ZM228.915 64.1526H226.62V73.6571C225.12 73.4519 222.869 73.2852 221.619 73.2852C215.247 73.2852 211.451 77.8258 211.451 84.2071C211.451 89.9598 214.535 94.8789 220.414 94.8789C223.036 94.8789 225.331 93.8784 226.665 91.6273C226.915 93.4615 228.498 94.8789 230.409 94.8789C231.492 94.8789 232.704 94.4171 233.454 93.2114L231.576 91.9159C231.287 92.3777 230.871 92.5829 230.409 92.5829C229.582 92.5829 228.915 91.8774 228.915 91.1271V64.1526ZM226.62 86.6249C226.62 87.6639 226.415 88.5425 226.037 89.2929C224.992 91.4157 222.908 92.7112 220.414 92.7112C215.997 92.7112 213.83 88.6643 213.83 83.9121C213.83 79.0828 216.035 75.4529 222.498 75.4529C224.453 75.4529 225.748 75.7864 226.62 75.8697V86.6249Z" fill="#C76675"/>
<path d="M85.4345 68.3213V65.9868H66.2268C65.0151 65.9868 64.0149 66.487 63.1815 67.3208C62.3929 68.116 61.9313 69.1614 61.9313 70.3671H64.265C64.265 69.8284 64.515 69.2384 64.8484 68.9113C65.2651 68.488 65.6818 68.3213 66.7653 68.3213V94.5069H69.3105V80.622H80.4338V78.2427H69.3105V68.3213H85.4345ZM87.5181 74.7859C88.6464 75.9082 89.185 77.5372 89.185 79.7434V94.462H91.4801V79.5767C92.1854 78.2876 93.1855 77.1588 93.8971 76.5752C94.8139 75.8313 95.8525 75.4978 97.4361 75.4978C97.981 75.4978 98.6478 75.5363 99.7697 75.7864V73.6187C98.231 73.3301 97.8977 73.2852 97.3527 73.2852C96.0641 73.2852 94.8139 73.5353 93.7689 74.2023C92.8521 74.7859 91.9353 75.8313 91.2301 77.0755C90.8967 75.5363 90.23 74.369 88.9349 73.407L87.5181 74.7859ZM111.65 73.2852C105.392 73.2852 101.27 77.9926 101.27 84.1686C101.27 90.3318 105.392 94.8789 111.605 94.8789C117.689 94.8789 121.984 90.505 121.984 84.1237C121.984 77.8258 117.772 73.2852 111.65 73.2852ZM111.65 75.4529C116.483 75.4529 119.606 78.7878 119.606 83.957C119.606 88.9209 116.734 92.7112 111.65 92.7112C106.726 92.7112 103.648 89.2095 103.648 84.1237C103.648 79.2881 106.437 75.4529 111.65 75.4529ZM125.773 74.7859C126.895 75.9082 127.44 77.5372 127.44 79.7434V94.462H129.729V79.6664C131.607 77.1588 133.479 75.4529 136.608 75.4529C139.775 75.4529 141.23 77.037 141.23 80.4553V91.2553C141.23 93.2499 142.731 95.0007 144.981 95.0007C146.314 95.0007 147.315 94.4171 148.065 93.3333L146.193 92.0827C145.859 92.4995 145.442 92.7112 145.026 92.7112C144.314 92.7112 143.526 92.166 143.526 91.2553V79.3714C143.276 75.2028 140.897 73.2852 136.813 73.2852C133.896 73.2852 131.479 74.369 129.479 77.2422C129.19 75.703 128.524 74.3305 127.19 73.407L125.773 74.7859ZM154.36 73.702V68.4495H152.065V88.504C152.065 92.3392 153.444 94.8789 157.277 94.8789C159.9 94.8789 161.695 93.6667 162.945 91.499L161.239 90.2484C160.361 91.9159 158.899 92.7112 157.277 92.7112C154.905 92.7112 154.36 91.0822 154.36 88.504V75.9916H160.945V73.702H154.36ZM181.986 90.7102C179.902 91.7941 177.902 92.7112 175.318 92.7112C171.113 92.7112 168.984 90.3318 168.484 86.1247H173.401C178.947 86.1247 182.569 83.8736 182.569 79.7049C182.569 75.7415 179.235 73.2852 175.152 73.2852C168.612 73.2852 165.984 79.4933 165.984 84.8741C165.984 90.5435 168.901 94.8789 175.318 94.8789C178.319 94.8789 180.902 93.9233 183.069 92.461L181.986 90.7102ZM168.362 83.957C168.362 80.5835 170.279 75.3246 175.28 75.3246C177.819 75.3246 180.236 76.7035 180.236 79.6664C180.236 82.8731 177.319 83.957 173.401 83.957H168.362ZM186.865 74.7859C187.987 75.9082 188.532 77.5372 188.532 79.7434V94.462H190.82V79.6664C192.699 77.1588 194.571 75.4529 197.699 75.4529C200.867 75.4529 202.322 77.037 202.322 80.4553V91.2553C202.322 93.2499 203.822 95.0007 206.072 95.0007C207.406 95.0007 208.406 94.4171 209.156 93.3333L207.284 92.0827C206.951 92.4995 206.534 92.7112 206.117 92.7112C205.406 92.7112 204.617 92.166 204.617 91.2553V79.3714C204.367 75.2028 201.995 73.2852 197.905 73.2852C194.988 73.2852 192.571 74.369 190.57 77.2422C190.282 75.703 189.615 74.3305 188.282 73.407L186.865 74.7859ZM228.915 64.1526H226.62V73.6571C225.12 73.4519 222.869 73.2852 221.619 73.2852C215.247 73.2852 211.451 77.8258 211.451 84.2071C211.451 89.9598 214.535 94.8789 220.414 94.8789C223.036 94.8789 225.331 93.8784 226.665 91.6273C226.915 93.4615 228.498 94.8789 230.409 94.8789C231.492 94.8789 232.704 94.4171 233.454 93.2114L231.576 91.9159C231.287 92.3777 230.871 92.5829 230.409 92.5829C229.582 92.5829 228.915 91.8774 228.915 91.1271V64.1526ZM226.62 86.6249C226.62 87.6639 226.415 88.5425 226.037 89.2929C224.992 91.4157 222.908 92.7112 220.414 92.7112C215.997 92.7112 213.83 88.6643 213.83 83.9121C213.83 79.0828 216.035 75.4529 222.498 75.4529C224.453 75.4529 225.748 75.7864 226.62 75.8697V86.6249Z" stroke="#C76675" stroke-width="0.7" mask="url(#path-27-outside-1_10_149)"/>
<mask id="path-28-outside-2_10_149" maskUnits="userSpaceOnUse" x="52.5969" y="125.407" width="190" height="43" fill="black">
<rect fill="white" x="52.5969" y="125.407" width="190" height="43"/>
<path d="M57.9308 127.908C56.6806 127.908 55.6356 128.446 54.8919 129.197C53.9303 130.114 53.5969 131.159 53.5969 132.288H55.9305C55.9305 132.038 55.9754 131.409 56.4755 130.909C56.9691 130.409 57.8475 130.242 58.8091 130.242V156.671L59.6426 156.793L60.7645 156.883C61.2197 156.921 63.4764 157.043 65.5151 157.043C77.3501 157.043 83.6009 152.791 83.6009 142.953C83.6009 134.199 78.6451 128.658 70.394 127.908H57.9308ZM61.3479 130.242H69.9773C76.7666 130.575 81.1006 135.328 81.1006 142.581C81.1006 150.457 76.0166 154.799 68.4771 154.799C67.0154 154.799 62.3929 154.625 61.3479 154.587V130.242ZM104.27 152.92C102.187 154.003 100.186 154.92 97.6028 154.92C93.3907 154.92 91.2686 152.541 90.7685 148.334H95.6858C101.231 148.334 104.854 146.083 104.854 141.914C104.854 137.951 101.52 135.494 97.4361 135.494C90.8967 135.494 88.2682 141.703 88.2682 147.083C88.2682 152.753 91.1852 157.088 97.6028 157.088C100.603 157.088 103.187 156.133 105.354 154.67L104.27 152.92ZM90.6467 146.166C90.6467 142.793 92.5636 137.534 97.5579 137.534C100.103 137.534 102.52 138.913 102.52 141.869C102.52 145.082 99.603 146.166 95.6858 146.166H90.6467ZM108.732 137.034C109.559 137.495 110.393 138.451 110.771 139.375L116.483 156.671H118.811L125.606 135.866H123.318L117.644 153.17L113.227 139.663C112.65 137.874 111.605 136.245 109.938 135.161L108.732 137.034ZM144.487 152.92C142.404 154.003 140.403 154.92 137.82 154.92C133.608 154.92 131.479 152.541 130.979 148.334H135.896C141.442 148.334 145.071 146.083 145.071 141.914C145.071 137.951 141.73 135.494 137.647 135.494C131.107 135.494 128.485 141.703 128.485 147.083C128.485 152.753 131.402 157.088 137.82 157.088C140.814 157.088 143.404 156.133 145.571 154.67L144.487 152.92ZM130.857 146.166C130.857 142.793 132.774 137.534 137.775 137.534C140.32 137.534 142.731 138.913 142.731 141.869C142.731 145.082 139.82 146.166 135.896 146.166H130.857ZM153.027 126.407H150.732V153.291C150.732 155.337 152.399 157.043 154.399 157.043C155.61 157.043 156.861 156.421 157.566 155.376L155.649 154.125C155.36 154.549 154.899 154.754 154.482 154.754C153.777 154.754 153.027 154.215 153.027 153.291V126.407ZM170.234 135.494C163.983 135.494 159.861 140.208 159.861 146.372C159.861 152.541 163.983 157.088 170.196 157.088C176.28 157.088 180.575 152.714 180.575 146.333C180.575 140.035 176.363 135.494 170.234 135.494ZM170.234 137.662C175.068 137.662 178.197 140.997 178.197 146.166C178.197 151.13 175.325 154.92 170.234 154.92C165.323 154.92 162.24 151.419 162.24 146.333C162.24 141.497 165.028 137.662 170.234 137.662ZM184.364 136.995C185.493 138.124 186.031 139.747 186.031 141.959V167.555H188.326V156.71C189.827 156.921 192.032 157.088 193.282 157.088C199.745 157.088 203.45 152.541 203.45 146.166C203.45 140.414 200.45 135.494 194.494 135.494C191.782 135.494 189.282 136.495 187.987 139.118C187.66 137.79 187.115 136.617 185.781 135.616L184.364 136.995ZM188.326 142.998C188.57 139.785 191.532 137.662 194.577 137.662C198.744 137.662 201.072 141.664 201.072 146.416C201.072 151.419 198.494 154.92 193.077 154.92C192.449 154.92 191.744 154.876 188.326 154.549V142.998ZM224.081 152.92C221.998 154.003 219.997 154.92 217.414 154.92C213.202 154.92 211.079 152.541 210.579 148.334H215.497C221.036 148.334 224.665 146.083 224.665 141.914C224.665 137.951 221.331 135.494 217.247 135.494C210.701 135.494 208.079 141.703 208.079 147.083C208.079 152.753 210.996 157.088 217.414 157.088C220.414 157.088 222.991 156.133 225.165 154.67L224.081 152.92ZM210.451 146.166C210.451 142.793 212.368 137.534 217.369 137.534C219.914 137.534 222.331 138.913 222.331 141.869C222.331 145.082 219.414 146.166 215.497 146.166H210.451ZM229.37 136.995C230.499 138.124 231.037 139.747 231.037 141.959V156.671H233.326V141.792C234.038 140.497 235.038 139.375 235.749 138.785C236.666 138.034 237.705 137.701 239.288 137.701C239.833 137.701 240.5 137.746 241.622 137.996V135.828C240.083 135.539 239.75 135.494 239.205 135.494C237.916 135.494 236.666 135.745 235.621 136.412C234.704 136.995 233.788 138.034 233.082 139.285C232.749 137.746 232.082 136.578 230.787 135.616L229.37 136.995Z"/>
</mask>
<path d="M57.9308 127.908C56.6806 127.908 55.6356 128.446 54.8919 129.197C53.9303 130.114 53.5969 131.159 53.5969 132.288H55.9305C55.9305 132.038 55.9754 131.409 56.4755 130.909C56.9691 130.409 57.8475 130.242 58.8091 130.242V156.671L59.6426 156.793L60.7645 156.883C61.2197 156.921 63.4764 157.043 65.5151 157.043C77.3501 157.043 83.6009 152.791 83.6009 142.953C83.6009 134.199 78.6451 128.658 70.394 127.908H57.9308ZM61.3479 130.242H69.9773C76.7666 130.575 81.1006 135.328 81.1006 142.581C81.1006 150.457 76.0166 154.799 68.4771 154.799C67.0154 154.799 62.3929 154.625 61.3479 154.587V130.242ZM104.27 152.92C102.187 154.003 100.186 154.92 97.6028 154.92C93.3907 154.92 91.2686 152.541 90.7685 148.334H95.6858C101.231 148.334 104.854 146.083 104.854 141.914C104.854 137.951 101.52 135.494 97.4361 135.494C90.8967 135.494 88.2682 141.703 88.2682 147.083C88.2682 152.753 91.1852 157.088 97.6028 157.088C100.603 157.088 103.187 156.133 105.354 154.67L104.27 152.92ZM90.6467 146.166C90.6467 142.793 92.5636 137.534 97.5579 137.534C100.103 137.534 102.52 138.913 102.52 141.869C102.52 145.082 99.603 146.166 95.6858 146.166H90.6467ZM108.732 137.034C109.559 137.495 110.393 138.451 110.771 139.375L116.483 156.671H118.811L125.606 135.866H123.318L117.644 153.17L113.227 139.663C112.65 137.874 111.605 136.245 109.938 135.161L108.732 137.034ZM144.487 152.92C142.404 154.003 140.403 154.92 137.82 154.92C133.608 154.92 131.479 152.541 130.979 148.334H135.896C141.442 148.334 145.071 146.083 145.071 141.914C145.071 137.951 141.73 135.494 137.647 135.494C131.107 135.494 128.485 141.703 128.485 147.083C128.485 152.753 131.402 157.088 137.82 157.088C140.814 157.088 143.404 156.133 145.571 154.67L144.487 152.92ZM130.857 146.166C130.857 142.793 132.774 137.534 137.775 137.534C140.32 137.534 142.731 138.913 142.731 141.869C142.731 145.082 139.82 146.166 135.896 146.166H130.857ZM153.027 126.407H150.732V153.291C150.732 155.337 152.399 157.043 154.399 157.043C155.61 157.043 156.861 156.421 157.566 155.376L155.649 154.125C155.36 154.549 154.899 154.754 154.482 154.754C153.777 154.754 153.027 154.215 153.027 153.291V126.407ZM170.234 135.494C163.983 135.494 159.861 140.208 159.861 146.372C159.861 152.541 163.983 157.088 170.196 157.088C176.28 157.088 180.575 152.714 180.575 146.333C180.575 140.035 176.363 135.494 170.234 135.494ZM170.234 137.662C175.068 137.662 178.197 140.997 178.197 146.166C178.197 151.13 175.325 154.92 170.234 154.92C165.323 154.92 162.24 151.419 162.24 146.333C162.24 141.497 165.028 137.662 170.234 137.662ZM184.364 136.995C185.493 138.124 186.031 139.747 186.031 141.959V167.555H188.326V156.71C189.827 156.921 192.032 157.088 193.282 157.088C199.745 157.088 203.45 152.541 203.45 146.166C203.45 140.414 200.45 135.494 194.494 135.494C191.782 135.494 189.282 136.495 187.987 139.118C187.66 137.79 187.115 136.617 185.781 135.616L184.364 136.995ZM188.326 142.998C188.57 139.785 191.532 137.662 194.577 137.662C198.744 137.662 201.072 141.664 201.072 146.416C201.072 151.419 198.494 154.92 193.077 154.92C192.449 154.92 191.744 154.876 188.326 154.549V142.998ZM224.081 152.92C221.998 154.003 219.997 154.92 217.414 154.92C213.202 154.92 211.079 152.541 210.579 148.334H215.497C221.036 148.334 224.665 146.083 224.665 141.914C224.665 137.951 221.331 135.494 217.247 135.494C210.701 135.494 208.079 141.703 208.079 147.083C208.079 152.753 210.996 157.088 217.414 157.088C220.414 157.088 222.991 156.133 225.165 154.67L224.081 152.92ZM210.451 146.166C210.451 142.793 212.368 137.534 217.369 137.534C219.914 137.534 222.331 138.913 222.331 141.869C222.331 145.082 219.414 146.166 215.497 146.166H210.451ZM229.37 136.995C230.499 138.124 231.037 139.747 231.037 141.959V156.671H233.326V141.792C234.038 140.497 235.038 139.375 235.749 138.785C236.666 138.034 237.705 137.701 239.288 137.701C239.833 137.701 240.5 137.746 241.622 137.996V135.828C240.083 135.539 239.75 135.494 239.205 135.494C237.916 135.494 236.666 135.745 235.621 136.412C234.704 136.995 233.788 138.034 233.082 139.285C232.749 137.746 232.082 136.578 230.787 135.616L229.37 136.995Z" fill="#C76675"/>
<path d="M57.9308 127.908C56.6806 127.908 55.6356 128.446 54.8919 129.197C53.9303 130.114 53.5969 131.159 53.5969 132.288H55.9305C55.9305 132.038 55.9754 131.409 56.4755 130.909C56.9691 130.409 57.8475 130.242 58.8091 130.242V156.671L59.6426 156.793L60.7645 156.883C61.2197 156.921 63.4764 157.043 65.5151 157.043C77.3501 157.043 83.6009 152.791 83.6009 142.953C83.6009 134.199 78.6451 128.658 70.394 127.908H57.9308ZM61.3479 130.242H69.9773C76.7666 130.575 81.1006 135.328 81.1006 142.581C81.1006 150.457 76.0166 154.799 68.4771 154.799C67.0154 154.799 62.3929 154.625 61.3479 154.587V130.242ZM104.27 152.92C102.187 154.003 100.186 154.92 97.6028 154.92C93.3907 154.92 91.2686 152.541 90.7685 148.334H95.6858C101.231 148.334 104.854 146.083 104.854 141.914C104.854 137.951 101.52 135.494 97.4361 135.494C90.8967 135.494 88.2682 141.703 88.2682 147.083C88.2682 152.753 91.1852 157.088 97.6028 157.088C100.603 157.088 103.187 156.133 105.354 154.67L104.27 152.92ZM90.6467 146.166C90.6467 142.793 92.5636 137.534 97.5579 137.534C100.103 137.534 102.52 138.913 102.52 141.869C102.52 145.082 99.603 146.166 95.6858 146.166H90.6467ZM108.732 137.034C109.559 137.495 110.393 138.451 110.771 139.375L116.483 156.671H118.811L125.606 135.866H123.318L117.644 153.17L113.227 139.663C112.65 137.874 111.605 136.245 109.938 135.161L108.732 137.034ZM144.487 152.92C142.404 154.003 140.403 154.92 137.82 154.92C133.608 154.92 131.479 152.541 130.979 148.334H135.896C141.442 148.334 145.071 146.083 145.071 141.914C145.071 137.951 141.73 135.494 137.647 135.494C131.107 135.494 128.485 141.703 128.485 147.083C128.485 152.753 131.402 157.088 137.82 157.088C140.814 157.088 143.404 156.133 145.571 154.67L144.487 152.92ZM130.857 146.166C130.857 142.793 132.774 137.534 137.775 137.534C140.32 137.534 142.731 138.913 142.731 141.869C142.731 145.082 139.82 146.166 135.896 146.166H130.857ZM153.027 126.407H150.732V153.291C150.732 155.337 152.399 157.043 154.399 157.043C155.61 157.043 156.861 156.421 157.566 155.376L155.649 154.125C155.36 154.549 154.899 154.754 154.482 154.754C153.777 154.754 153.027 154.215 153.027 153.291V126.407ZM170.234 135.494C163.983 135.494 159.861 140.208 159.861 146.372C159.861 152.541 163.983 157.088 170.196 157.088C176.28 157.088 180.575 152.714 180.575 146.333C180.575 140.035 176.363 135.494 170.234 135.494ZM170.234 137.662C175.068 137.662 178.197 140.997 178.197 146.166C178.197 151.13 175.325 154.92 170.234 154.92C165.323 154.92 162.24 151.419 162.24 146.333C162.24 141.497 165.028 137.662 170.234 137.662ZM184.364 136.995C185.493 138.124 186.031 139.747 186.031 141.959V167.555H188.326V156.71C189.827 156.921 192.032 157.088 193.282 157.088C199.745 157.088 203.45 152.541 203.45 146.166C203.45 140.414 200.45 135.494 194.494 135.494C191.782 135.494 189.282 136.495 187.987 139.118C187.66 137.79 187.115 136.617 185.781 135.616L184.364 136.995ZM188.326 142.998C188.57 139.785 191.532 137.662 194.577 137.662C198.744 137.662 201.072 141.664 201.072 146.416C201.072 151.419 198.494 154.92 193.077 154.92C192.449 154.92 191.744 154.876 188.326 154.549V142.998ZM224.081 152.92C221.998 154.003 219.997 154.92 217.414 154.92C213.202 154.92 211.079 152.541 210.579 148.334H215.497C221.036 148.334 224.665 146.083 224.665 141.914C224.665 137.951 221.331 135.494 217.247 135.494C210.701 135.494 208.079 141.703 208.079 147.083C208.079 152.753 210.996 157.088 217.414 157.088C220.414 157.088 222.991 156.133 225.165 154.67L224.081 152.92ZM210.451 146.166C210.451 142.793 212.368 137.534 217.369 137.534C219.914 137.534 222.331 138.913 222.331 141.869C222.331 145.082 219.414 146.166 215.497 146.166H210.451ZM229.37 136.995C230.499 138.124 231.037 139.747 231.037 141.959V156.671H233.326V141.792C234.038 140.497 235.038 139.375 235.749 138.785C236.666 138.034 237.705 137.701 239.288 137.701C239.833 137.701 240.5 137.746 241.622 137.996V135.828C240.083 135.539 239.75 135.494 239.205 135.494C237.916 135.494 236.666 135.745 235.621 136.412C234.704 136.995 233.788 138.034 233.082 139.285C232.749 137.746 232.082 136.578 230.787 135.616L229.37 136.995Z" stroke="#C76675" stroke-width="0.7" mask="url(#path-28-outside-2_10_149)"/>
</svg>
