<svg width="52" height="45" viewBox="0 0 52 45" fill="none" xmlns="http://www.w3.org/2000/svg">
<path d="M5.67807 23.8045C4.45775 24.4849 3.83977 25.4193 4.10015 26.7162C4.24431 26.1007 4.58515 25.5491 5.06456 25.0399C4.95169 25.7303 4.71813 26.3346 4.31583 26.8236C5.50597 26.2462 5.87475 25.1899 5.67807 23.8045ZM12.1395 34.8256C11.545 36.0923 11.5875 37.2091 12.5541 38.1121C12.3138 37.5269 12.2669 36.8801 12.3619 36.1874C12.6715 36.8129 12.8346 37.4418 12.7921 38.0729C13.4224 36.9092 13.1062 35.836 12.1395 34.8256ZM10.6041 33.3026C9.88215 34.5011 9.80839 35.6178 10.6767 36.6149C10.4979 36.0084 10.5191 35.3594 10.6845 34.6812C10.9281 35.3359 11.0254 35.977 10.9181 36.6014C11.6646 35.5093 11.4612 34.4082 10.6041 33.3026ZM8.04496 29.8225C7.09172 30.8453 6.78888 31.9229 7.4348 33.0788C7.38451 32.4488 7.53873 31.8177 7.84046 31.1877C7.94438 31.8793 7.90639 32.5272 7.67283 33.1158C8.6283 32.1993 8.65512 31.0814 8.04496 29.8225ZM9.23399 31.6297C8.39139 32.7465 8.20253 33.8487 8.96355 34.9319C8.84733 34.3097 8.93673 33.6674 9.17141 33.0083C9.34574 33.6853 9.37592 34.3343 9.20382 34.942C10.0598 33.9337 9.97155 32.817 9.23399 31.6297ZM7.04926 27.9023C5.99545 28.8199 5.58308 29.8606 6.10496 31.078C6.11949 30.4447 6.33852 29.8348 6.70395 29.2384C6.73524 29.9378 6.63131 30.579 6.3374 31.1385C7.38339 30.3272 7.52644 29.216 7.04926 27.9023ZM6.25694 25.8892C5.11373 26.6938 4.59632 27.6852 4.98857 28.9486C5.06903 28.3197 5.35064 27.7367 5.77529 27.1806C5.73395 27.8788 5.56409 28.5043 5.21431 29.0314C6.33852 28.3354 6.59555 27.2466 6.25694 25.8892ZM14.5779 39.4068C14.2773 38.8495 14.1644 38.2106 14.1868 37.5123C14.56 38.1031 14.7869 38.7108 14.8104 39.343C15.3166 38.1199 14.8908 37.086 13.8247 36.1818C13.3643 37.5022 13.5219 38.6089 14.5779 39.4068ZM5.72389 31.4999C5.0925 31.4842 4.48234 31.2649 3.88782 30.9001C4.58515 30.8688 5.22436 30.9729 5.78424 31.266C4.97516 30.2198 3.86659 30.0754 2.55351 30.5532C3.47099 31.6096 4.51027 32.0214 5.72389 31.4999ZM5.31823 21.6706C4.03421 22.2211 3.32348 23.085 3.44752 24.4043C3.65538 23.8068 4.05098 23.292 4.58068 22.8366C4.39629 23.5114 4.10126 24.0888 3.65091 24.533C4.8947 24.082 5.37076 23.0682 5.31823 21.6706ZM12.5653 40.3535C13.1553 39.9797 13.7621 39.7526 14.3935 39.7291C13.1721 39.2221 12.1384 39.6485 11.2355 40.716C12.5552 41.177 13.6616 41.0193 14.4561 39.9607C13.9007 40.2628 13.2626 40.3758 12.5653 40.3535ZM7.09955 33.5387C6.46927 33.5902 5.84011 33.4335 5.21095 33.1325C5.90157 33.0296 6.54861 33.0665 7.13642 33.3004C6.2223 32.3448 5.10591 32.3168 3.84982 32.9278C4.87011 33.8812 5.94516 34.1833 7.09955 33.5387ZM4.56727 29.329C3.94034 29.2496 3.35588 28.9676 2.80272 28.5413C3.49893 28.5816 4.12585 28.7528 4.65108 29.103C3.95487 27.9784 2.86753 27.7199 1.51199 28.0601C2.31548 29.2048 3.3056 29.7218 4.56727 29.329ZM8.67859 35.4231C8.05725 35.5395 7.41468 35.4511 6.75759 35.2161C7.43368 35.0404 8.08072 35.0113 8.68865 35.1825C7.68177 34.3254 6.56761 34.4149 5.38081 35.1535C6.49609 35.9961 7.59796 36.1852 8.67859 35.4231ZM8.51208 37.1263C9.16694 36.8812 9.80728 36.785 10.4297 36.8935C9.33904 36.1449 8.23941 36.3497 7.13642 37.2079C8.33216 37.9308 9.44744 38.0047 10.4431 37.1341C9.83857 37.3142 9.19041 37.2919 8.51208 37.1263ZM10.4543 38.845C11.0801 38.5351 11.707 38.3717 12.3373 38.4142C11.1751 37.7831 10.1034 38.0998 9.0943 39.0688C10.3593 39.6642 11.4757 39.6216 12.3764 38.6526C11.7931 38.8943 11.146 38.9402 10.4543 38.845ZM3.64197 27.0508C3.02622 26.9053 2.47529 26.5651 1.96794 26.0839C2.65744 26.197 3.2609 26.432 3.74925 26.8337C3.17261 25.6431 2.11768 25.2738 0.734205 25.4707C1.41365 26.6938 2.34565 27.3104 3.64197 27.0508ZM7.49067 5.341C7.93656 5.1642 8.42715 5.13734 8.95014 5.21679C8.47297 5.44506 7.99467 5.56144 7.51749 5.52116C8.39139 6.0124 9.20829 5.78524 9.98384 5.06349C9.03172 4.59798 8.18465 4.617 7.49067 5.341ZM4.30689 18.3371C3.9884 18.9593 3.5805 19.4628 3.04745 19.8041C4.35606 19.6206 5.03103 18.7276 5.26795 17.349C3.89788 17.622 3.02398 18.3203 2.87424 19.6351C3.20279 19.0947 3.69449 18.6728 4.30689 18.3371ZM9.12001 6.37719C8.04049 5.95085 7.11742 6.04485 6.42122 6.89529C6.8928 6.66478 7.42586 6.59204 8.00473 6.63344C7.50297 6.9255 6.99115 7.09223 6.46592 7.09112C7.46274 7.55214 8.3344 7.23211 9.12001 6.37719ZM8.62606 3.9456C9.04178 3.81692 9.48878 3.82699 9.95814 3.93553C9.5089 4.10898 9.06748 4.18059 8.63724 4.11121C9.39491 4.61924 10.1515 4.47041 10.9058 3.86951C10.0766 3.37939 9.30663 3.33798 8.62606 3.9456ZM2.95582 24.6885C2.35906 24.4804 1.84613 24.0843 1.3913 23.5539C2.06516 23.7385 2.6418 24.0339 3.08433 24.4849C2.63397 23.2394 1.62374 22.7639 0.226855 22.8153C0.777787 24.1011 1.64051 24.8128 2.95582 24.6885ZM9.82068 2.68561C10.2006 2.59944 10.5996 2.63749 11.0108 2.76617C10.5974 2.89038 10.1995 2.92507 9.81957 2.83443C10.4621 3.33798 11.1483 3.2563 11.8613 2.77177C11.1528 2.27829 10.4688 2.18877 9.82068 2.68561ZM10.9002 1.79488C11.3316 2.17982 11.8188 2.15184 12.3451 1.84188C11.8668 1.46142 11.3874 1.36742 10.9069 1.68969C11.1796 1.64605 11.4601 1.69081 11.7439 1.80047C11.4467 1.86873 11.1639 1.87545 10.9002 1.79488ZM8.34222 7.83301C7.11742 7.46598 6.11278 7.65509 5.42775 8.65436C5.92392 8.35671 6.50279 8.22802 7.14201 8.21907C6.6179 8.58499 6.07255 8.81774 5.49592 8.86473C6.63242 9.27765 7.55996 8.84571 8.34222 7.83301ZM3.22737 22.1842C4.51027 21.8642 5.08803 20.9074 5.1819 19.5109C3.84759 19.9261 3.0508 20.7105 3.03851 22.0343C3.30671 21.4613 3.75372 20.9902 4.32812 20.593C4.07445 21.2454 3.72131 21.7892 3.22737 22.1842ZM4.58068 10.4951C5.04891 10.1549 5.61437 9.97591 6.25024 9.91212C5.76077 10.3228 5.23666 10.6025 4.66673 10.6999C5.83564 11.011 6.72183 10.4996 7.41245 9.42312C6.15972 9.16351 5.17519 9.4399 4.58068 10.4951ZM3.30224 14.8257C3.72466 14.3736 4.28118 14.0692 4.93493 13.8723C4.50469 14.4027 4.01186 14.8022 3.43411 15.0215C4.72483 15.1099 5.54956 14.3915 6.05467 13.1192C4.68796 13.1058 3.71125 13.597 3.30224 14.8257ZM4.52033 16.0901C4.13814 16.6754 3.68108 17.1353 3.11674 17.4195C4.43763 17.3725 5.20089 16.5545 5.57973 15.2072C4.18843 15.337 3.24749 15.9402 2.96252 17.2338C3.34248 16.7291 3.87665 16.3609 4.52033 16.0901ZM3.89564 12.4657C4.3527 12.0673 4.92599 11.8267 5.5842 11.7014C5.11038 12.1747 4.58962 12.516 4.00404 12.6705C5.25342 12.8875 6.13066 12.271 6.752 11.0826C5.42105 10.9282 4.41864 11.3086 3.89564 12.4657ZM11.9931 0.607617C11.8221 0.858274 11.6188 1.05298 11.3718 1.17048C11.9451 1.16264 12.2837 0.815752 12.4602 0.234989C11.8557 0.277512 11.4422 0.530407 11.3059 1.08879C11.4757 0.872821 11.7104 0.718399 11.9931 0.607617ZM2.40712 17.3546C1.90312 16.973 1.53546 16.4381 1.26614 15.7936C1.8506 16.1752 2.30989 16.634 2.59262 17.1991C2.54569 15.8764 1.72879 15.1121 0.384424 14.7339C0.512938 16.1271 1.11639 17.0693 2.40712 17.3546ZM2.75019 14.8872C2.2976 14.4642 1.99476 13.907 1.79696 13.2535C2.32666 13.6843 2.72673 14.1778 2.94576 14.7563C3.03404 13.4638 2.3166 12.6369 1.04599 12.1322C1.03146 13.5008 1.52317 14.4788 2.75019 14.8872ZM3.3503 12.4679C2.95246 12.0114 2.71332 11.4362 2.58704 10.7771C3.05975 11.2516 3.40058 11.7719 3.5548 12.3594C3.7716 11.1095 3.15585 10.2299 1.96905 9.60775C1.81595 10.9416 2.19591 11.9453 3.3503 12.4679ZM4.06215 10.4526C3.72243 9.98262 3.54363 9.41752 3.47993 8.78081C3.89005 9.27205 4.16831 9.79574 4.26554 10.3676C4.57732 9.19708 4.06662 8.30971 2.99046 7.61705C2.73231 8.87145 3.00834 9.85729 4.06215 10.4526ZM2.51999 22.267C1.94782 21.9985 1.47847 21.5509 1.08175 20.9757C1.73214 21.2286 2.27525 21.5833 2.66973 22.0779C2.35012 20.7922 1.39465 20.2148 0 20.1208C0.413479 21.4569 1.19797 22.2547 2.51999 22.267ZM2.3356 19.8131C1.79472 19.4863 1.37342 18.9928 1.03817 18.3807C1.6595 18.6996 2.1635 19.1081 2.50322 19.6407C2.31884 18.3293 1.42818 17.6545 0.0514062 17.4173C0.325196 18.7892 1.02252 19.6642 2.3356 19.8131ZM6.92857 3.71509C7.15654 4.1929 7.27276 4.67183 7.23365 5.15077C7.72423 4.27459 7.49738 3.45884 6.77547 2.68001C6.31058 3.6334 6.32958 4.4816 7.05373 5.1765C6.87604 4.73002 6.84811 4.23878 6.92857 3.71509ZM4.91593 8.56596C4.61867 8.07025 4.48904 7.4906 4.48122 6.85053C4.84664 7.37534 5.07797 7.92142 5.12602 8.49882C5.53838 7.35968 5.10702 6.43202 4.09568 5.6476C3.72802 6.87515 3.91799 7.88113 4.91593 8.56596ZM9.52678 1.26447C9.65082 1.6785 9.68547 2.07799 9.59495 2.45845C10.0978 1.81502 10.0162 1.12907 9.53125 0.414031C9.03843 1.12348 8.95014 1.80831 9.44632 2.45733C9.35915 2.07575 9.39715 1.67738 9.52678 1.26447ZM10.7013 0.602022C10.7706 0.899677 10.7773 1.18278 10.6957 1.44687C11.0801 1.01605 11.0522 0.52705 10.7426 0C10.3627 0.478933 10.2688 0.958984 10.5906 1.44016C10.5459 1.166 10.5918 0.886249 10.7013 0.602022ZM8.20812 2.41145C8.38133 2.86241 8.45285 3.30441 8.38356 3.73411C8.8898 2.97543 8.74117 2.21786 8.14218 1.46254C7.65383 2.29395 7.61137 3.06383 8.21817 3.7453C8.08966 3.32791 8.09972 2.88143 8.20812 2.41145ZM5.9541 6.76996C5.72389 6.29774 5.65125 5.76286 5.6926 5.18434C5.98315 5.68677 6.15078 6.19927 6.14854 6.7252C6.60896 5.72593 6.29047 4.85423 5.43669 4.06757C5.01092 5.14741 5.10479 6.07282 5.9541 6.76996ZM15.0283 39.7112C13.1665 38.7096 11.4556 37.462 9.94249 36.0084C2.71779 29.0706 0.728617 18.3169 4.97627 9.328C6.41451 6.28544 8.51096 3.55395 11.1639 1.35511C11.2377 1.29357 11.2053 1.24657 11.203 1.24321C11.1997 1.23985 11.1595 1.19509 11.0824 1.25888C8.41597 3.47003 6.30723 6.21718 4.86229 9.27429C0.581106 18.3349 2.47529 29.1881 9.76816 36.1919C11.2936 37.6567 13.0168 38.9144 14.8931 39.926C14.9847 39.9652 15.159 40.0804 15.216 39.9741C15.2775 39.8566 15.102 39.7559 15.0283 39.7112Z" fill="#C76675"/>
<path d="M46.3208 23.8045C46.1241 25.1887 46.4929 26.2462 47.6831 26.8236C47.2808 26.3346 47.0472 25.7303 46.9343 25.0399C47.4149 25.5479 47.7546 26.1007 47.8987 26.7162C48.1591 25.4193 47.5422 24.486 46.3208 23.8045ZM39.637 36.1874C39.732 36.8801 39.6862 37.528 39.4448 38.1121C40.4125 37.2091 40.455 36.0923 39.8594 34.8256C38.8927 35.836 38.5765 36.9092 39.2067 38.0729C39.1654 37.4418 39.3274 36.8129 39.637 36.1874ZM41.3959 33.3026C40.5388 34.4082 40.3354 35.5093 41.0819 36.6003C40.9746 35.977 41.0707 35.3347 41.3155 34.6812C41.4809 35.3605 41.5021 36.0084 41.3222 36.6149C42.1916 35.6178 42.1179 34.5011 41.3959 33.3026ZM43.955 29.8225C43.3449 31.0814 43.3717 32.1993 44.3272 33.1146C44.0936 32.526 44.0567 31.8781 44.1595 31.1866C44.4613 31.8177 44.6155 32.4477 44.5652 33.0777C45.2111 31.9229 44.9083 30.8453 43.955 29.8225ZM42.766 31.6297C42.0285 32.817 41.9391 33.9337 42.7951 34.942C42.6241 34.3343 42.6531 33.6853 42.8275 33.0083C43.0621 33.6674 43.1515 34.3097 43.0353 34.9319C43.7975 33.8487 43.6086 32.7465 42.766 31.6297ZM45.895 31.078C46.4169 29.8606 46.0046 28.821 44.9507 27.9034C44.4736 29.2172 44.6166 30.3283 45.6615 31.1385C45.3687 30.579 45.2636 29.9378 45.2949 29.2384C45.6615 29.8337 45.8805 30.4447 45.895 31.078ZM45.7419 25.8892C45.4033 27.2466 45.6604 28.3343 46.7846 29.0314C46.4348 28.5043 46.2649 27.8788 46.2236 27.1806C46.6482 27.7356 46.9299 28.3197 47.0103 28.9486C47.4026 27.6852 46.8852 26.6938 45.7419 25.8892ZM37.8132 37.5123C37.8356 38.2106 37.7227 38.8495 37.4221 39.4068C38.4781 38.6101 38.6357 37.5022 38.1753 36.1818C37.1092 37.0871 36.6834 38.121 37.1896 39.3441C37.2131 38.7096 37.4388 38.1031 37.8132 37.5123ZM46.2158 31.266C46.7756 30.9717 47.4149 30.8688 48.1122 30.9001C47.5177 31.266 46.9075 31.4854 46.2761 31.4999C47.4908 32.0214 48.529 31.6107 49.4465 30.5544C48.1334 30.0754 47.0248 30.2198 46.2158 31.266ZM48.5514 24.4032C48.6754 23.0839 47.9658 22.22 46.6807 21.6706C46.6281 23.0682 47.1042 24.082 48.348 24.5319C47.8976 24.0876 47.6015 23.5102 47.4182 22.8355C47.949 23.2909 48.3435 23.8057 48.5514 24.4032ZM37.6065 39.7291C38.2379 39.7526 38.8447 39.9797 39.4347 40.3535C38.7374 40.3758 38.0993 40.2617 37.5439 39.9607C38.3396 41.0193 39.4459 41.177 40.7646 40.716C39.8605 39.6485 38.8268 39.2221 37.6065 39.7291ZM44.8647 33.2993C45.4525 33.0654 46.0984 33.0296 46.7902 33.1314C46.161 33.4336 45.5307 33.5891 44.9016 33.5376C46.056 34.1833 47.131 33.88 48.1535 32.9266C46.8952 32.3157 45.7777 32.3436 44.8647 33.2993ZM47.3478 29.103C47.8742 28.7528 48.5 28.5816 49.1962 28.5413C48.643 28.9665 48.0585 29.2485 47.4316 29.329C48.6933 29.7229 49.6845 29.206 50.4869 28.0601C49.1325 27.7199 48.0451 27.9784 47.3478 29.103ZM43.3102 35.1814C43.9182 35.0102 44.5663 35.0393 45.2413 35.215C44.5842 35.45 43.9416 35.5384 43.3203 35.422C44.4009 36.1852 45.5028 35.9949 46.6181 35.1512C45.4313 34.4138 44.3171 34.3243 43.3102 35.1814ZM41.5692 36.8935C42.1916 36.7861 42.8331 36.8823 43.4868 37.1274C42.8085 37.293 42.1603 37.3154 41.5557 37.1341C42.5514 38.0047 43.6667 37.9308 44.8625 37.2079C43.7595 36.3497 42.6598 36.1449 41.5692 36.8935ZM39.6616 38.4142C40.2918 38.3717 40.9199 38.5351 41.5446 38.845C40.8528 38.939 40.2058 38.8932 39.6225 38.6515C40.5232 39.6205 41.6396 39.663 42.9046 39.0677C41.8955 38.0998 40.8238 37.7831 39.6616 38.4142ZM48.2508 26.8337C48.738 26.432 49.3426 26.1981 50.0321 26.0839C49.5258 26.5651 48.9738 26.9053 48.358 27.0508C49.6543 27.3104 50.5852 26.6938 51.2658 25.4707C49.8823 25.2738 48.8274 25.6431 48.2508 26.8337ZM44.5082 5.341C43.8142 4.61588 42.9672 4.59686 42.015 5.06349C42.7906 5.78524 43.6075 6.01352 44.4814 5.52228C44.0031 5.56256 43.5259 5.44506 43.0487 5.21791C43.5717 5.13734 44.0634 5.16531 44.5082 5.341ZM49.1246 19.6351C48.9749 18.3203 48.1021 17.622 46.7309 17.349C46.9678 18.7276 47.6428 19.6206 48.9514 19.8041C48.4195 19.4628 48.0116 18.9593 47.692 18.3382C48.3044 18.6728 48.7972 19.0947 49.1246 19.6351ZM45.5777 6.89529C44.8815 6.04485 43.9584 5.95085 42.8789 6.37719C43.6645 7.23211 44.5361 7.55214 45.533 7.09112C45.0089 7.09335 44.497 6.9255 43.9942 6.63344C44.573 6.59204 45.1072 6.66478 45.5777 6.89529ZM43.3728 3.9456C42.6923 3.33798 41.9234 3.3805 41.0931 3.86951C41.8474 4.47041 42.604 4.61924 43.3616 4.11121C42.9314 4.18059 42.49 4.10898 42.0407 3.93553C42.5101 3.82587 42.9571 3.81692 43.3728 3.9456ZM48.9146 24.4849C49.3582 24.0339 49.9348 23.7385 50.6076 23.5539C50.1539 24.0843 49.6398 24.4804 49.0431 24.6885C50.3584 24.8139 51.2211 24.1011 51.7709 22.8153C50.3751 22.7627 49.3649 23.2394 48.9146 24.4849ZM42.1793 2.68561C41.5312 2.18877 40.8472 2.27829 40.1387 2.77177C40.8528 3.2563 41.5379 3.33798 42.1804 2.83443C41.8016 2.92619 41.4026 2.8915 40.9892 2.76617C41.4004 2.63749 41.7994 2.59944 42.1793 2.68561ZM41.0931 1.68857C40.6126 1.3663 40.1332 1.46142 39.6549 1.84076C40.1812 2.15072 40.6684 2.1787 41.0998 1.79376C40.8361 1.87433 40.5533 1.86761 40.2561 1.79824C40.5399 1.68969 40.8204 1.64493 41.0931 1.68857ZM43.6578 7.83301C44.44 8.84571 45.3676 9.27765 46.5041 8.86473C45.9274 8.81774 45.3821 8.58499 44.858 8.21907C45.4961 8.22802 46.0761 8.35671 46.5723 8.65436C45.8872 7.65509 44.8826 7.46598 43.6578 7.83301ZM48.9615 22.0343C48.9492 20.7105 48.1524 19.9261 46.8181 19.5109C46.912 20.9074 47.4897 21.8642 48.7726 22.1842C48.2787 21.7892 47.9256 21.2465 47.6719 20.5941C48.2463 20.9902 48.6933 21.4613 48.9615 22.0343ZM44.5876 9.422C45.2793 10.4996 46.1644 11.011 47.3333 10.6988C46.7633 10.6014 46.2392 10.3217 45.7498 9.911C46.3856 9.97479 46.9511 10.1549 47.4193 10.4951C46.8248 9.4399 45.8403 9.16351 44.5876 9.422ZM45.9453 13.1203C46.4504 14.3926 47.2752 15.111 48.5659 15.0226C47.9881 14.8033 47.4953 14.4038 47.0651 13.8734C47.7188 14.0703 48.2753 14.3747 48.6978 14.8268C48.2887 13.597 47.312 13.1058 45.9453 13.1203ZM49.0375 17.2338C48.7525 15.9402 47.8116 15.337 46.4203 15.2072C46.7991 16.5534 47.5624 17.3725 48.8833 17.4195C48.3189 17.1353 47.8607 16.6754 47.4797 16.0901C48.1234 16.3609 48.6564 16.7291 49.0375 17.2338ZM45.248 11.0815C45.8693 12.2699 46.7466 12.8864 47.996 12.6693C47.4104 12.5149 46.8896 12.1736 46.4158 11.7003C47.074 11.8256 47.6473 12.0662 48.1044 12.4646C47.5814 11.3086 46.579 10.9282 45.248 11.0815ZM40.6282 1.17048C40.3812 1.05298 40.1779 0.858274 40.0069 0.607617C40.2885 0.719518 40.5243 0.87394 40.6941 1.08879C40.5578 0.530407 40.1443 0.278631 39.5398 0.234989C39.7174 0.814633 40.0549 1.16264 40.6282 1.17048ZM49.4074 17.1991C49.6912 16.634 50.1505 16.1752 50.7339 15.7936C50.4645 16.4381 50.0958 16.9719 49.5929 17.3546C50.8836 17.0693 51.4871 16.1271 51.6167 14.7339C50.2712 15.1132 49.4543 15.8764 49.4074 17.1991ZM49.0542 14.7563C49.2722 14.1778 49.6733 13.6843 50.203 13.2535C50.0064 13.9081 49.7024 14.4653 49.2498 14.8872C50.4768 14.4788 50.9685 13.5008 50.954 12.1311C49.6834 12.6369 48.966 13.4638 49.0542 14.7563ZM48.4452 12.3594C48.5994 11.773 48.9403 11.2516 49.413 10.7771C49.2878 11.4351 49.0475 12.0103 48.6497 12.4679C49.8041 11.9453 50.184 10.9416 50.0309 9.60887C48.843 10.2299 48.2284 11.1095 48.4452 12.3594ZM47.7345 10.3664C47.8317 9.79463 48.1111 9.27094 48.5201 8.77969C48.4564 9.41641 48.2765 9.98262 47.9379 10.4515C48.9917 9.85617 49.2677 8.87033 49.0095 7.61481C47.9334 8.30859 47.4227 9.19596 47.7345 10.3664ZM49.48 22.267C50.802 22.2547 51.5854 21.458 52 20.1219C50.6053 20.2148 49.6499 20.7933 49.3303 22.079C49.7247 21.5844 50.2679 21.2297 50.9183 20.9768C50.5215 21.5509 50.0522 21.9973 49.48 22.267ZM49.4957 19.6407C49.8365 19.1081 50.3405 18.6996 50.9607 18.3807C50.6255 18.9939 50.2042 19.4874 49.6633 19.8142C50.9764 19.6642 51.6737 18.7903 51.9475 17.4184C50.5707 17.6545 49.68 18.3304 49.4957 19.6407ZM45.0714 3.71509C45.1508 4.23878 45.124 4.73002 44.9474 5.1765C45.6715 4.4816 45.6905 3.6334 45.2257 2.68001C44.5037 3.45772 44.2758 4.27459 44.7675 5.15077C44.7272 4.67183 44.8435 4.1929 45.0714 3.71509ZM46.874 8.49882C46.9209 7.92142 47.1534 7.37534 47.5188 6.85053C47.511 7.48948 47.3813 8.06913 47.0841 8.56596C48.082 7.88113 48.2709 6.87515 47.9043 5.6476C46.893 6.43202 46.4616 7.35968 46.874 8.49882ZM42.4732 1.26447C42.6017 1.67738 42.6408 2.07575 42.5537 2.45733C43.0499 1.80831 42.9616 1.12348 42.4688 0.414031C41.9838 1.12907 41.9022 1.81502 42.4051 2.45845C42.3145 2.07799 42.3492 1.67738 42.4732 1.26447ZM41.2987 0.602022C41.4082 0.886249 41.4541 1.16712 41.4094 1.44016C41.7312 0.958984 41.6373 0.478933 41.2574 0C40.9478 0.52705 40.9199 1.01493 41.3043 1.44687C41.2227 1.18278 41.2294 0.898558 41.2987 0.602022ZM43.7908 2.41145C43.8992 2.88143 43.9092 3.32791 43.7807 3.7453C44.3875 3.06383 44.3451 2.29395 43.8567 1.46254C43.2577 2.21786 43.108 2.97431 43.6153 3.73411C43.546 3.30329 43.6176 2.86129 43.7908 2.41145ZM46.3074 5.18434C46.3487 5.76286 46.2772 6.29774 46.0459 6.76996C46.8952 6.07282 46.9891 5.14853 46.5633 4.06757C45.7084 4.85423 45.3899 5.72705 45.8515 6.7252C45.8492 6.19927 46.0168 5.68677 46.3074 5.18434ZM47.1377 9.27429C45.6928 6.21718 43.584 3.47003 40.9176 1.25888C40.8417 1.19509 40.8003 1.23985 40.797 1.24433C40.7947 1.24769 40.7623 1.29469 40.8361 1.35623C43.4879 3.55619 45.5855 6.28767 47.0237 9.33024C51.2714 18.3181 49.2811 29.0728 42.0575 36.0106C40.5444 37.4642 38.8335 38.7108 36.9717 39.7134C36.898 39.7581 36.7225 39.8589 36.7862 39.9764C36.8432 40.0827 37.0164 39.9674 37.1092 39.9282C38.9844 38.9167 40.7087 37.6589 42.2341 36.1941C49.5247 29.1881 51.42 18.3349 47.1377 9.27429Z" fill="#C76675"/>
<path d="M21.9298 14.312C21.9298 14.952 21.7938 15.448 21.5218 15.8C21.2658 16.152 20.9218 16.328 20.4898 16.328C20.2658 16.328 20.0738 16.288 19.9138 16.208C19.7698 16.128 19.6178 16 19.4578 15.824C19.6818 15.664 19.8498 15.432 19.9618 15.128C20.0898 14.824 20.1538 14.504 20.1538 14.168C20.1538 13.896 20.1058 13.624 20.0098 13.352C19.9298 13.08 19.7938 12.84 19.6018 12.632C19.4098 12.408 19.1698 12.232 18.8818 12.104C18.5938 11.96 18.2498 11.888 17.8498 11.888C17.4338 11.888 17.0578 11.968 16.7218 12.128C16.4018 12.272 16.1298 12.48 15.9058 12.752C15.6978 13.008 15.5378 13.312 15.4258 13.664C15.3138 14.016 15.2578 14.392 15.2578 14.792C15.2578 15.56 15.4418 16.176 15.8098 16.64C16.1938 17.104 16.6658 17.496 17.2258 17.816C17.7858 18.136 18.3938 18.44 19.0498 18.728C19.7218 19.016 20.3378 19.376 20.8978 19.808C21.4578 20.224 21.9218 20.76 22.2898 21.416C22.6738 22.056 22.8658 22.912 22.8658 23.984C22.8658 24.944 22.7058 25.768 22.3858 26.456C22.0658 27.128 21.6418 27.672 21.1138 28.088C20.6018 28.504 20.0098 28.808 19.3378 29C18.6658 29.192 17.9778 29.288 17.2738 29.288C16.6498 29.288 16.0338 29.216 15.4258 29.072C14.8178 28.928 14.2738 28.704 13.7938 28.4C13.3138 28.08 12.9218 27.68 12.6178 27.2C12.3298 26.704 12.1858 26.112 12.1858 25.424C12.1858 25.024 12.2418 24.616 12.3538 24.2C12.4658 23.784 12.6258 23.408 12.8338 23.072C13.0578 22.736 13.3298 22.464 13.6498 22.256C13.9858 22.032 14.3698 21.92 14.8018 21.92C15.1538 21.92 15.4498 22.016 15.6898 22.208C15.9458 22.4 16.1698 22.76 16.3618 23.288C15.9778 23.304 15.6578 23.384 15.4018 23.528C15.1618 23.672 14.9698 23.848 14.8258 24.056C14.6818 24.264 14.5778 24.488 14.5138 24.728C14.4658 24.968 14.4418 25.192 14.4418 25.4C14.4418 25.832 14.5378 26.208 14.7298 26.528C14.9218 26.848 15.1618 27.12 15.4498 27.344C15.7538 27.552 16.0738 27.712 16.4098 27.824C16.7618 27.92 17.0978 27.968 17.4178 27.968C18.1538 27.968 18.7618 27.688 19.2418 27.128C19.7218 26.568 19.9618 25.76 19.9618 24.704C19.9618 23.808 19.7858 23.104 19.4338 22.592C19.0978 22.064 18.6658 21.624 18.1378 21.272C17.6098 20.92 17.0418 20.616 16.4338 20.36C15.8418 20.104 15.2818 19.8 14.7538 19.448C14.2258 19.096 13.7858 18.648 13.4338 18.104C13.0978 17.544 12.9298 16.8 12.9298 15.872C12.9298 15.072 13.0658 14.368 13.3378 13.76C13.6098 13.152 13.9618 12.648 14.3938 12.248C14.8418 11.832 15.3538 11.528 15.9298 11.336C16.5218 11.128 17.1298 11.024 17.7538 11.024C18.0258 11.024 18.3938 11.056 18.8578 11.12C19.3378 11.184 19.8018 11.328 20.2498 11.552C20.7138 11.776 21.1058 12.112 21.4258 12.56C21.7618 12.992 21.9298 13.576 21.9298 14.312ZM38.4966 13.88C37.9206 13.88 37.2966 13.824 36.6246 13.712C35.9686 13.6 35.2806 13.464 34.5606 13.304V29H31.9686V12.92C31.7926 12.888 31.6246 12.872 31.4646 12.872C31.3206 12.872 31.1686 12.872 31.0086 12.872C29.6646 12.872 28.6326 13.12 27.9126 13.616C27.2086 14.096 26.8566 14.976 26.8566 16.256C26.8566 17.216 26.9606 17.952 27.1686 18.464C27.3926 18.96 27.6166 19.336 27.8406 19.592C27.4406 19.592 27.0646 19.536 26.7126 19.424C26.3766 19.296 26.0806 19.096 25.8246 18.824C25.5686 18.552 25.3686 18.2 25.2246 17.768C25.0806 17.32 25.0086 16.768 25.0086 16.112C25.0086 15.456 25.1366 14.824 25.3926 14.216C25.6486 13.608 26.0566 13.072 26.6166 12.608C27.1926 12.128 27.9286 11.744 28.8246 11.456C29.7366 11.168 30.8486 11.024 32.1606 11.024C32.8006 11.024 33.3766 11.056 33.8886 11.12C34.4166 11.168 34.9046 11.232 35.3526 11.312C35.8166 11.376 36.2726 11.44 36.7206 11.504C37.1686 11.552 37.6406 11.576 38.1366 11.576C38.8086 11.576 39.3686 11.528 39.8166 11.432C40.2806 11.32 40.6646 11.2 40.9686 11.072C41.0166 11.36 41.0406 11.632 41.0406 11.888C41.0406 13.216 40.1926 13.88 38.4966 13.88Z" fill="#C76675"/>
<path d="M35.8606 38.6397C35.8107 39.3369 35.6323 39.9605 35.2758 40.4836C36.4085 39.8005 36.6801 38.7151 36.3591 37.3532C35.2053 38.1428 34.6748 39.1273 35.0514 40.3956C35.14 39.7699 35.4287 39.188 35.8606 38.6397Z" fill="#C76675"/>
<path d="M33.8027 39.5588C33.6804 40.2473 33.4387 40.8491 33.0298 41.3318C34.2272 40.7698 34.6098 39.7188 34.4312 38.3312C33.202 38.9969 32.5724 39.9206 32.8153 41.2215C32.9684 40.6079 33.3157 40.0604 33.8027 39.5588Z" fill="#C76675"/>
<path d="M31.6599 40.2595C31.4672 40.9311 31.1646 41.5053 30.708 41.9434C31.9573 41.5092 32.4465 40.5025 32.4127 39.1033C31.1207 39.6378 30.3993 40.4921 30.5064 41.8119C30.7217 41.2157 31.1241 40.707 31.6599 40.2595Z" fill="#C76675"/>
<path d="M27.6517 40.809C27.3732 41.3357 27.02 41.7603 26.5627 42.0462C27.6803 41.9033 28.2646 41.1509 28.482 39.9786C27.3112 40.1967 26.5593 40.7813 26.4172 41.9005C26.7017 41.4424 27.1262 41.088 27.6517 40.809Z" fill="#C76675"/>
<path d="M29.4567 40.7339C29.1952 41.3823 28.8347 41.9225 28.3354 42.3089C29.6226 42.0071 30.2129 41.0574 30.3246 39.6625C28.9845 40.0596 28.1785 40.8338 28.1481 42.1567C28.4244 41.5879 28.877 41.1233 29.4567 40.7339Z" fill="#C76675"/>
<path d="M25.9859 40.9843C26.1177 41.4157 26.1561 41.8319 26.0635 42.2288C26.5855 41.5547 26.4956 40.8386 25.9859 40.0959C25.4763 40.8386 25.3867 41.5546 25.9084 42.2279C25.8157 41.8319 25.8537 41.4159 25.9859 40.9843Z" fill="#C76675"/>
<path d="M25.4368 42.0462C24.9794 41.7604 24.6255 41.3357 24.3473 40.809C24.873 41.088 25.298 41.4424 25.5814 41.9005C25.4396 40.7813 24.6878 40.1967 23.5172 39.9786C23.7345 41.1509 24.3188 41.9032 25.4368 42.0462Z" fill="#C76675"/>
<path d="M18.9632 41.3318C18.5545 40.8492 18.3127 40.2474 18.1904 39.5587C18.6772 40.0604 19.0244 40.6079 19.1774 41.2214C19.4206 39.9205 18.7911 38.9969 17.5617 38.3311C17.3833 39.7188 17.7657 40.7698 18.9632 41.3318Z" fill="#C76675"/>
<path d="M21.2851 41.9434C20.8285 41.5053 20.5252 40.9311 20.3329 40.2595C20.8687 40.707 21.271 41.2157 21.4866 41.8119C21.5937 40.4921 20.872 39.6378 19.5806 39.1033C19.5467 40.5024 20.0359 41.5092 21.2851 41.9434Z" fill="#C76675"/>
<path d="M23.6573 42.3089C23.1581 41.9224 22.7977 41.3823 22.5361 40.7339C23.1156 41.1234 23.5686 41.588 23.8443 42.1566C23.8143 40.8338 23.0083 40.0595 21.6684 39.6624C21.7796 41.0576 22.3701 42.0071 23.6573 42.3089Z" fill="#C76675"/>
<path d="M16.7173 40.4836C16.3607 39.9605 16.1823 39.3369 16.132 38.6397C16.5645 39.1879 16.8532 39.7699 16.9417 40.3954C17.3182 39.1272 16.7879 38.1427 15.6341 37.3531C15.313 38.7151 15.5846 39.8005 16.7173 40.4836Z" fill="#C76675"/>
<path d="M36.9425 39.7267C34.2906 41.1504 31.3325 42.0766 28.1928 42.3785C27.5214 41.9822 26.8739 41.9488 26.2595 42.4252C26.5917 42.3474 26.9376 42.3632 27.2942 42.4469C27.3319 42.5319 27.2107 42.5776 27.2107 42.5776C26.8835 42.6452 26.5655 42.6519 26.2594 42.5803C26.871 43.0546 27.5157 43.0232 28.1843 42.6328C31.4078 42.3281 34.4427 41.3723 37.1569 39.8994C37.0839 39.8438 37.0131 39.7854 36.9425 39.7267Z" fill="#C76675"/>
<path d="M17.1885 42.6746C17.6886 42.1872 18.2359 41.8386 18.8492 41.6863C17.5496 41.4424 16.6269 42.0727 15.9625 43.3033C17.3486 43.4822 18.3981 43.0996 18.959 41.9005C18.477 42.31 17.8758 42.5529 17.1885 42.6746Z" fill="#C76675"/>
<path d="M19.6587 43.4622C20.106 42.9249 20.6143 42.5232 21.2082 42.3072C19.8907 42.1996 19.0376 42.9222 18.5046 44.2154C19.9016 44.2488 20.9059 43.7594 21.34 42.5089C20.9029 42.966 20.3295 43.269 19.6587 43.4622Z" fill="#C76675"/>
<path d="M22.1975 43.9888C22.5866 43.4087 23.0504 42.9555 23.6183 42.6792C22.2974 42.7097 21.5238 43.5176 21.1272 44.858C22.5201 44.747 23.4692 44.1563 23.7705 42.8669C23.3829 43.3666 22.8446 43.7279 22.1975 43.9888Z" fill="#C76675"/>
<path d="M24.3473 44.1697C24.6255 43.6421 24.9794 43.2173 25.4368 42.9326C24.3189 43.0747 23.7346 43.8279 23.5172 45C24.6878 44.7832 25.4396 44.1974 25.5814 43.0784C25.298 43.5365 24.8729 43.8898 24.3473 44.1697Z" fill="#C76675"/>
<path d="M26.0126 43.9937C25.8809 43.5641 25.8427 43.147 25.9352 42.7498C25.414 43.4252 25.5033 44.1401 26.0126 44.883C26.5228 44.1401 26.6122 43.4252 26.0901 42.7498C26.1827 43.147 26.1449 43.5641 26.0126 43.9937Z" fill="#C76675"/>
<path d="M26.5627 42.9326C27.0198 43.2173 27.3731 43.6421 27.6517 44.1697C27.1262 43.8898 26.7017 43.5365 26.4173 43.0784C26.5593 44.1974 27.3113 44.7831 28.4821 45C28.2646 43.8279 27.6803 43.0747 26.5627 42.9326Z" fill="#C76675"/>
<path d="M30.7846 42.3072C31.3785 42.5233 31.8873 42.9249 32.3341 43.4622C31.6638 43.269 31.0898 42.966 30.6531 42.5088C31.0869 43.7593 32.0917 44.2487 33.4881 44.2152C32.9557 42.9222 32.1021 42.1996 30.7846 42.3072Z" fill="#C76675"/>
<path d="M33.1436 41.6863C33.7565 41.8386 34.3041 42.1872 34.8045 42.6746C34.1168 42.5529 33.5159 42.31 33.0335 41.9005C33.5943 43.0996 34.6442 43.4822 36.0304 43.3033C35.3662 42.0727 34.4431 41.4424 33.1436 41.6863Z" fill="#C76675"/>
<path d="M28.3738 42.6792C28.9422 42.9555 29.4064 43.4088 29.7953 43.9888C29.1478 43.7279 28.6094 43.3666 28.2221 42.8669C28.5238 44.1563 29.4723 44.747 30.8651 44.858C30.4692 43.5176 29.6959 42.7097 28.3738 42.6792Z" fill="#C76675"/>
<path d="M35.426 40.8233C36.0513 40.913 36.632 41.2016 37.1798 41.6348C36.4835 41.5834 35.8605 41.4053 35.3386 41.0489C36.0203 42.1821 37.1046 42.4545 38.4642 42.1328C37.6763 40.9787 36.6931 40.4471 35.426 40.8233Z" fill="#C76675"/>
<path d="M16.6544 41.0489C16.1324 41.4053 15.5093 41.5834 14.8131 41.6348C15.361 41.2016 15.9414 40.913 16.567 40.8233C15.2997 40.4471 14.3165 40.9787 13.5287 42.1328C14.8885 42.4545 15.9726 42.1821 16.6544 41.0489Z" fill="#C76675"/>
<path d="M24.7838 42.5488C24.7838 42.5488 24.6254 42.4946 24.6188 42.4414C25.0049 42.3386 25.3802 42.3136 25.7391 42.3986C25.1128 41.9127 24.4514 41.9566 23.7652 42.3746C20.6517 42.0712 17.7167 41.1545 15.0832 39.7463C15.0404 39.8187 14.9985 39.8917 14.9574 39.9652C17.6579 41.41 20.6721 42.3439 23.8703 42.6375C24.519 42.9985 25.1446 43.0136 25.7391 42.5538C25.4311 42.6251 25.1118 42.6177 24.7838 42.5488Z" fill="#C76675"/>
</svg>
