<svg width="26" height="26" viewBox="0 0 26 26" fill="none" xmlns="http://www.w3.org/2000/svg">
<rect width="26" height="26" fill="#F2F2EA"/>
<path d="M5.46575 5.08828H6.59818C6.60325 3.5293 7.86263 2.26484 9.42669 2.25977H12.2552V7.91172H9.42669C7.86771 7.90664 6.60325 6.64726 6.59818 5.0832H5.46575H4.33333C4.33333 7.89141 6.60833 10.1715 9.42161 10.1715H13.3775C13.6771 10.1715 13.9665 10.0496 14.1747 9.84141C14.3829 9.6332 14.5048 9.33867 14.5048 9.04414V1.13242C14.5048 0.832812 14.3829 0.543359 14.1747 0.335156C13.9665 0.126953 13.6771 0 13.3775 0H9.42161C6.61341 0 4.33333 2.275 4.33333 5.08828H5.46575Z" fill="#C76675"/>
<path d="M13.3775 1.13242V2.26484H17.3333C18.8923 2.26992 20.1568 3.5293 20.1618 5.09336C20.1568 6.65234 18.8974 7.9168 17.3333 7.92187H14.5048V1.13242H13.3775V2.26484V1.13242H12.245V9.04414C12.245 9.34375 12.3669 9.6332 12.5751 9.84141C12.7833 10.0496 13.0779 10.1715 13.3724 10.1715H17.3283C20.1365 10.1715 22.4165 7.89648 22.4165 5.0832C22.4216 2.275 20.1415 0 17.3333 0H13.3775C13.0779 0 12.7884 0.121875 12.5802 0.330078C12.372 0.538281 12.2501 0.832812 12.2501 1.12734H13.3775V1.13242Z" fill="#C76675"/>
<path d="M13.3775 12.9999H14.5099C14.515 11.4409 15.7743 10.1765 17.3384 10.1714C18.8974 10.1765 20.1618 11.4358 20.1669 12.9999C20.1618 14.5589 18.9025 15.8233 17.3384 15.8284C15.7794 15.8233 14.515 14.564 14.5099 12.9999H13.3775H12.245C12.245 15.8081 14.52 18.0882 17.3333 18.0882C20.1415 18.0882 22.4216 15.8132 22.4216 12.9999C22.4216 10.1917 20.1466 7.91162 17.3333 7.91162C14.5251 7.91162 12.245 10.1866 12.245 12.9999H13.3775Z" fill="#C76675"/>
<path d="M5.46575 20.9118H6.59818C6.60325 19.3528 7.86263 18.0884 9.42669 18.0833H12.2552V20.9118C12.2501 22.4708 10.9908 23.7353 9.42669 23.7403C7.86771 23.7353 6.60325 22.4759 6.59818 20.9118H5.46575H4.33333C4.33333 23.72 6.60833 26.0001 9.42161 26.0001C12.2298 26.0001 14.5099 23.7251 14.5099 20.9118V16.956C14.5099 16.6563 14.388 16.3669 14.1798 16.1587C13.9716 15.9505 13.6771 15.8286 13.3826 15.8286H9.42669C6.61849 15.8286 4.33841 18.1036 4.33841 20.9169H5.46575V20.9118Z" fill="#C76675"/>
<path d="M5.46575 13H6.59818C6.60325 11.441 7.86263 10.1765 9.42669 10.1714H12.2552V15.8234H9.42669C7.86771 15.8183 6.60325 14.5589 6.59818 12.9949H5.46575H4.33333C4.33333 15.8031 6.60833 18.0832 9.42161 18.0832H13.3775C13.6771 18.0832 13.9665 17.9613 14.1747 17.7531C14.3829 17.5449 14.5048 17.2503 14.5048 16.9558V9.04409C14.5048 8.74448 14.3829 8.45503 14.1747 8.24683C13.9665 8.03862 13.672 7.91675 13.3775 7.91675H9.42161C6.61341 7.91675 4.33333 10.1917 4.33333 13.005H5.46575V13Z" fill="#C76675"/>
</svg>
