<svg width="24" height="28" viewBox="0 0 24 28" fill="none" xmlns="http://www.w3.org/2000/svg">
<g clip-path="url(#clip0_27_429)">
<rect width="24" height="27.5294" fill="#F2F2EA"/>
<path d="M2.00961 24.6456L0 0.0458984L24 0.0953328L21.875 24.6456L12.0906 27.4833L2.00961 24.6456Z" fill="#C76675"/>
<path d="M12.0906 25.1076V2.38867L21.9739 2.42163L20.2115 22.7481L12.0906 25.1076Z" fill="#C76675"/>
<path d="M11.0323 5.08643H8.41936V20.2075L6.3871 19.8198V17.7843L3.96774 17.3966V21.9523L11.0323 23.7939V5.08643ZM12.9923 5.08643H20.2258L19.7419 7.98464H15.7537V12.7406H19.7419L19.2581 22.34L12.9923 23.7939V20.7891L17.2258 19.3352L17.4703 15.361L12.9923 16.0105V5.08643Z" fill="#F2F2EA"/>
</g>
<defs>
<clipPath id="clip0_27_429">
<rect width="24" height="27.5294" fill="white"/>
</clipPath>
</defs>
</svg>
