<svg width="24" height="24" viewBox="0 0 24 24" fill="none" xmlns="http://www.w3.org/2000/svg">
<g clip-path="url(#clip0_181_452)">
<path d="M4.25 0H19.75C22.1 0 24 1.87912 24 4.2033V18.9396C24 21.2637 22.1 23.1429 19.75 23.1429H4.25C1.9 23.1429 0 21.2637 0 18.9396V4.2033C0 1.87912 1.9 0 4.25 0Z" fill="#C76675"/>
<path d="M5.4 16.2296V6.05265C5.4 5.98342 5.43 5.94386 5.5 5.94386C5.67 5.94386 5.83 5.94386 6.06 5.93397C6.3 5.92408 6.55 5.92408 6.82 5.91419C7.09 5.9043 7.38 5.9043 7.69 5.89441C8 5.88452 8.3 5.88452 8.6 5.88452C9.42 5.88452 10.1 5.98342 10.66 6.19111C11.16 6.35925 11.62 6.63617 12 7.0021C12.32 7.31859 12.57 7.7043 12.73 8.12958C12.88 8.54496 12.96 8.97024 12.96 9.41529C12.96 10.2658 12.76 10.968 12.36 11.5219C11.96 12.0757 11.4 12.4911 10.75 12.7285C10.07 12.9757 9.32 13.0647 8.5 13.0647C8.26 13.0647 8.1 13.0647 8 13.0549C7.9 13.045 7.76 13.045 7.57 13.045V16.2197C7.58 16.2889 7.53 16.3483 7.46 16.3581C7.45 16.3581 7.44 16.3581 7.42 16.3581H5.52C5.44 16.3581 5.4 16.3186 5.4 16.2296ZM7.58 7.85265V11.1757C7.72 11.1856 7.85 11.1955 7.97 11.1955H8.5C8.89 11.1955 9.28 11.1362 9.65 11.0175C9.97 10.9285 10.25 10.7406 10.47 10.4933C10.68 10.2461 10.78 9.9098 10.78 9.47463C10.79 9.16804 10.71 8.86145 10.55 8.59441C10.38 8.33727 10.14 8.13947 9.85 8.03068C9.48 7.88232 9.08 7.82298 8.67 7.83287C8.41 7.83287 8.18 7.83287 7.99 7.84276C7.79 7.83287 7.65 7.84276 7.58 7.85265Z" fill="#F5F5F5"/>
<path d="M19.2 10.5723C18.9 10.4141 18.58 10.3053 18.24 10.2361C17.87 10.1569 17.5 10.1075 17.12 10.1075C16.92 10.0976 16.71 10.1273 16.52 10.1767C16.39 10.2064 16.28 10.2756 16.21 10.3745C16.16 10.4536 16.13 10.5525 16.13 10.6416C16.13 10.7306 16.17 10.8196 16.23 10.8987C16.32 11.0075 16.44 11.0965 16.57 11.1657C16.8 11.2844 17.04 11.3932 17.28 11.4921C17.82 11.6701 18.34 11.9174 18.82 12.2141C19.15 12.4218 19.42 12.6987 19.61 13.035C19.77 13.3514 19.85 13.6976 19.84 14.0536C19.85 14.5185 19.71 14.9833 19.45 15.369C19.17 15.7646 18.78 16.0712 18.33 16.2492C17.84 16.4569 17.24 16.5657 16.52 16.5657C16.06 16.5657 15.61 16.5262 15.16 16.4372C14.81 16.3778 14.46 16.269 14.14 16.1207C14.07 16.0811 14.02 16.0119 14.03 15.9328V14.2119C14.03 14.1822 14.04 14.1427 14.07 14.1229C14.1 14.1031 14.13 14.113 14.16 14.1328C14.55 14.3602 14.96 14.5185 15.4 14.6174C15.78 14.7163 16.18 14.7657 16.58 14.7657C16.96 14.7657 17.23 14.7163 17.41 14.6273C17.57 14.558 17.68 14.3899 17.68 14.2119C17.68 14.0734 17.6 13.9449 17.44 13.8163C17.28 13.6877 16.95 13.5394 16.46 13.3514C15.95 13.1734 15.48 12.9361 15.04 12.6394C14.73 12.4218 14.47 12.135 14.28 11.7987C14.12 11.4822 14.04 11.1361 14.05 10.7899C14.05 10.3646 14.17 9.95914 14.39 9.5932C14.64 9.1976 15.01 8.88111 15.44 8.68331C15.91 8.44595 16.5 8.33716 17.21 8.33716C17.62 8.33716 18.04 8.36683 18.45 8.42617C18.75 8.46573 19.04 8.54485 19.31 8.65364C19.35 8.66353 19.39 8.70309 19.41 8.74265C19.42 8.78221 19.43 8.82177 19.43 8.86133V10.4734C19.43 10.513 19.41 10.5525 19.38 10.5723C19.29 10.5921 19.24 10.5921 19.2 10.5723Z" fill="#F5F5F5"/>
</g>
<defs>
<clipPath id="clip0_181_452">
<rect width="24" height="23.1429" fill="white"/>
</clipPath>
</defs>
</svg>
