<svg width="37" height="37" viewBox="0 0 37 37" fill="none" xmlns="http://www.w3.org/2000/svg">
<path d="M22.9392 14.0379C25.8763 16.975 28.1833 20.1249 29.5322 22.8903C31.1576 26.2223 31.3882 29.0398 30.2169 30.211C28.9964 31.4315 26.0071 31.1905 22.4635 29.4106C19.7844 28.065 16.7883 25.7649 14.0003 22.9769C11.1418 20.1184 8.76167 17.0849 7.42246 14.3549C5.72786 10.9001 5.56894 7.95738 6.76614 6.76018C7.92782 5.59845 10.6664 5.77006 13.9623 7.36186C16.7471 8.70694 19.9735 11.0722 22.9392 14.0379Z" stroke="#C76675" stroke-width="2" stroke-miterlimit="10"/>
<path d="M16.8307 12.4027C20.8423 11.3257 24.7234 10.9009 27.793 11.1138C31.4914 11.3703 34.0473 12.5782 34.4768 14.1779C34.9244 15.8449 33.2222 18.314 29.9101 20.4946C27.406 22.1432 23.9168 23.5896 20.1088 24.6121C16.2045 25.6603 12.3877 26.2066 9.3536 26.0028C5.51424 25.745 2.88576 24.4125 2.44669 22.7773C2.02076 21.1905 3.53745 18.9039 6.56294 16.8441C9.11921 15.1036 12.78 13.4903 16.8307 12.4027Z" stroke="#C76675" stroke-width="2" stroke-miterlimit="10"/>
<path d="M12.3623 16.8785C13.4326 12.8652 15.0028 9.29046 16.7203 6.73746C18.7896 3.6614 21.1125 2.0503 22.713 2.47715C24.3807 2.92189 25.6698 5.62974 25.9048 9.58824C26.0826 12.5811 25.5931 16.3263 24.5771 20.1361C23.5354 24.0421 22.1026 27.6217 20.4107 30.1486C18.2699 33.3461 15.8028 34.9579 14.1669 34.5216C12.5794 34.0982 11.3559 31.6422 11.0822 27.9922C10.8511 24.9083 11.2816 20.9311 12.3623 16.8785Z" stroke="#C76675" stroke-width="2" stroke-miterlimit="10"/>
<path d="M18.5 21.5444C18.4372 21.5444 18.384 21.5227 18.3405 21.4792L16.0787 19.2971C16.0545 19.2778 16.0212 19.2464 15.9789 19.2028C15.9366 19.1594 15.8696 19.0802 15.7778 18.9654C15.686 18.8507 15.6038 18.7328 15.5313 18.612C15.4588 18.4912 15.3942 18.345 15.3374 18.1734C15.2806 18.0019 15.2522 17.8351 15.2522 17.6733C15.2522 17.1416 15.4056 16.726 15.7125 16.4263C16.0195 16.1267 16.4435 15.9768 16.9848 15.9768C17.1346 15.9768 17.2875 16.0028 17.4433 16.0548C17.5992 16.1067 17.7442 16.1768 17.8783 16.265C18.0124 16.3532 18.1278 16.436 18.2245 16.5133C18.3211 16.5906 18.413 16.6728 18.4999 16.7598C18.5869 16.6728 18.6787 16.5906 18.7754 16.5133C18.8721 16.436 18.9874 16.3532 19.1216 16.265C19.2557 16.1768 19.4006 16.1067 19.5566 16.0548C19.7124 16.0028 19.8653 15.9768 20.0151 15.9768C20.5564 15.9768 20.9805 16.1267 21.2874 16.4263C21.5944 16.7259 21.7478 17.1416 21.7478 17.6733C21.7478 18.2073 21.4711 18.751 20.9177 19.3044L18.6595 21.4793C18.616 21.5227 18.5628 21.5444 18.5 21.5444Z" fill="#C76675"/>
</svg>
