<svg width="49" height="24" viewBox="0 0 49 24" fill="none" xmlns="http://www.w3.org/2000/svg">
<rect width="49" height="24" fill="#F2F2EA"/>
<path fill-rule="evenodd" clip-rule="evenodd" d="M41.1521 13.6909C39.5432 13.6965 38.145 13.9495 36.9742 14.3237C36.5447 13.768 36.1149 13.2727 36.0391 12.9099C35.955 12.4864 35.8538 12.2277 35.955 11.7215C36.0561 11.2152 36.511 10.4947 36.5026 10.4396C36.4943 10.3845 36.4015 10.1259 35.4751 10.1205C34.5487 10.1152 33.7482 10.236 33.6557 10.3956C33.5632 10.5551 33.3862 10.9182 33.2683 11.2923C33.1084 11.8423 31.4153 13.8064 30.4465 14.8353C30.1349 14.4338 29.8654 14.0817 29.8063 13.801C29.7222 13.3775 29.621 13.1189 29.7222 12.6126C29.8233 12.1063 30.2782 11.3858 30.2698 11.3307C30.2615 11.2757 30.1687 11.017 29.2423 11.0117C28.3159 11.0063 27.5154 11.1271 27.4229 11.2867C27.3304 11.4462 27.2292 11.8203 27.0355 12.1834C26.8418 12.5465 24.5927 15.8255 24.003 16.6725C23.6998 17.1071 23.4386 17.4538 23.2533 17.6904C23.2533 17.6904 23.245 17.7068 23.2196 17.7345L22.9668 18.0482C22.8406 18.2023 22.7057 18.3398 22.6382 18.3398C22.5878 18.3398 22.495 17.9437 22.6549 17.4047C22.9919 16.266 23.792 14.4945 23.7837 14.4338C23.7837 14.4007 23.9353 14.0927 23.2614 13.9332C22.6045 13.7736 22.3684 14.0376 22.3096 14.0376C22.2508 14.0376 22.2085 14.1311 22.2085 14.1311C22.2085 14.1311 22.9412 12.1397 20.8102 12.1397C19.4794 12.1397 17.6431 13.0915 16.7331 13.9495L13.6332 15.0552L12.1421 15.5889C12.1084 15.5669 12.0747 15.5395 12.041 15.5174C9.46327 13.7186 4.69557 12.4474 4.89791 10.0325C4.97372 9.15236 5.43691 6.84158 14.0543 4.03584C21.1469 1.75273 26.7908 2.38549 27.7679 3.78822C29.1662 5.79066 24.7438 9.50982 17.4154 10.0491C14.6189 10.2527 13.153 9.5485 12.7826 9.2845C12.3952 9.00949 12.3361 8.99283 12.1929 9.04789C11.9571 9.13033 12.1087 9.37796 12.1929 9.52111C12.4119 9.89523 13.3132 10.5554 14.838 10.8801C16.1858 11.1661 19.4624 11.3256 23.43 10.3244C27.8691 9.20205 31.3398 6.08262 30.3206 3.46944C29.3002 0.817298 22.5613 -0.0574315 16.1846 1.42238C12.394 2.30276 8.28324 3.68911 5.32652 5.49363C1.81408 7.63923 1.25808 9.50417 1.4855 10.2854C2.30264 13.0581 8.15699 14.8627 10.4986 16.1996L10.1787 16.3151C9.00786 16.6946 4.54338 18.2187 3.43137 19.8307C2.16775 21.6572 3.63343 22.9665 4.60218 23.1427C7.60934 23.6873 10.701 22.7081 12.3603 21.0905C14.0197 19.4729 13.8176 17.3714 13.0509 16.4088C13.0419 16.3958 13.0305 16.3846 13.0172 16.3758L13.9352 16.0237C14.5333 15.7927 15.1231 15.5781 15.6283 15.402C15.3418 15.9136 15.1314 16.5243 15.0302 17.4044C14.904 18.4387 15.5525 19.781 16.4034 20.3093C16.7824 20.5402 17.2289 20.5459 17.5154 20.5459C18.5095 20.5459 18.956 20.0069 19.4529 19.3685C20.0594 18.5872 20.607 17.6794 20.607 17.6794C20.607 17.6794 19.9248 20.1331 21.7778 20.1331C22.4517 20.1331 23.134 19.561 23.4372 19.2693C23.4372 19.2747 23.4539 19.2583 23.4876 19.2199L23.5972 19.1045V19.0934C23.8667 18.7854 24.4731 18.0866 25.3744 16.9258C26.5369 15.4293 27.6573 13.5588 27.6573 13.5588C27.6573 13.5588 27.7584 14.0153 28.1037 14.7746C28.3058 15.2201 28.7272 15.7097 29.0641 16.1829C28.7946 16.4306 28.626 16.5681 28.626 16.5681L28.6344 16.5737C28.4153 16.7609 28.1795 16.9642 27.9184 17.1624C27.0004 17.8776 25.9051 18.6973 25.7535 18.9339C25.5765 19.2146 25.6186 19.4181 25.9555 19.583C26.1997 19.7042 26.6378 19.7205 27.0842 19.7042C27.9098 19.6658 28.4908 19.5336 28.7773 19.4512C29.2238 19.3467 29.7461 19.1872 30.2347 18.9506C31.136 18.516 31.6836 17.8943 31.6329 17.0746C31.6075 16.6234 31.3801 16.1725 31.1022 15.7487C31.1864 15.6716 31.2622 15.5948 31.3464 15.5177C32.77 14.1588 33.8733 12.6679 33.8733 12.6679C33.8733 12.6679 33.9745 13.1245 34.3198 13.8837C34.4884 14.2689 34.8337 14.687 35.137 15.0942C33.7975 15.8037 32.972 16.6291 32.6772 17.1684C32.1465 18.1696 32.5593 18.6208 33.3427 18.7253C33.6964 18.7747 34.2019 18.6648 34.5726 18.5601C35.0444 18.461 35.6002 18.2904 36.1311 18.0374C37.0324 17.6029 37.9 16.9975 37.8495 16.1779C37.8242 15.8037 37.6726 15.4353 37.4622 15.0775C38.5992 14.7695 40.0652 14.5989 41.935 14.7418C45.9446 15.0499 46.7364 16.6838 46.5848 17.3717C46.4332 18.0595 45.591 18.4336 45.3128 18.5491C45.0347 18.6645 44.9422 18.7032 44.9675 18.7857C45.0012 18.9068 45.1358 18.9012 45.3719 18.8791C45.7005 18.8407 47.4778 18.3235 47.5536 17.0582C47.6798 15.4409 45.3212 13.6748 41.1516 13.6912L41.1521 13.6909ZM10.2208 20.5018C8.88968 21.448 7.03662 21.8057 6.23648 21.503C5.37725 21.1783 5.7142 19.781 7.34849 18.7797C8.34233 18.169 9.62295 17.6023 10.4735 17.2559L11.299 16.9312C11.3581 16.9092 11.3916 16.8981 11.3916 16.8981L11.5936 16.8157C12.1917 18.2461 11.619 19.506 10.2205 20.5018H10.2208ZM19.9078 16.1996C19.4446 16.9368 18.4758 18.8238 17.8861 18.7193C17.3808 18.6312 17.0689 17.2008 17.7849 15.7871C18.1472 15.0773 18.9136 14.2302 19.3601 13.9001C20.0845 13.3721 20.8849 13.1959 21.0786 13.4105C21.3227 13.6912 20.194 15.7377 19.9078 16.1999V16.1996ZM27.9017 18.6973C27.708 18.7634 27.5227 18.8074 27.4385 18.7744C27.3797 18.7524 27.5227 18.6643 27.5227 18.6643C27.5227 18.6643 28.5251 17.9601 28.9209 17.641L29.7043 16.9862V17.0577C29.7043 17.8994 28.4577 18.4661 27.9017 18.697V18.6973ZM34.0676 17.7785C33.9244 17.7125 33.9497 17.4925 34.4299 16.8047C34.6153 16.535 35.0534 16.0838 35.8031 15.6493C35.8872 15.8255 35.9463 15.9957 35.938 16.1556C35.9296 17.2172 34.7672 17.6133 34.0679 17.7785H34.0676Z" fill="#C76675"/>
</svg>
