<svg width="24" height="24" viewBox="0 0 24 24" fill="none" xmlns="http://www.w3.org/2000/svg">
<g clip-path="url(#clip0_181_442)">
<path d="M4.25 0H19.75C22.1 0 24 1.94872 24 4.35897V19.641C24 22.0513 22.1 24 19.75 24H4.25C1.9 24 0 22.0513 0 19.641V4.35897C0 1.94872 1.9 0 4.25 0Z" fill="#C76675"/>
<path d="M12.62 6.30765L9.62 11.3846L12.82 16.7692C12.84 16.8102 12.85 16.8512 12.84 16.8923C12.83 16.9333 12.79 16.9025 12.73 16.9128H10.44C10.28 16.9128 10.17 16.9025 10.1 16.8C9.89 16.3692 9.67 15.9487 9.46 15.5179C9.25 15.0974 9.02 14.6666 8.78 14.2256C8.54 13.7846 8.3 13.3436 8.06 12.8923H8.04C7.83 13.3333 7.6 13.7743 7.37 14.2153C7.14 14.6564 6.91 15.0974 6.69 15.5282C6.46 15.9589 6.23 16.4 6 16.8205C5.96 16.923 5.88 16.9333 5.77 16.9333H3.57C3.53 16.9333 3.5 16.9538 3.5 16.9025C3.49 16.8615 3.5 16.8205 3.52 16.7897L6.63 11.5589L3.6 6.2974C3.57 6.25637 3.56 6.21535 3.58 6.19483C3.6 6.16407 3.64 6.15381 3.68 6.15381H5.95C6 6.15381 6.05 6.16407 6.09 6.17432C6.13 6.19483 6.16 6.2256 6.19 6.26663C6.38 6.70765 6.6 7.14868 6.83 7.58971C7.07 8.03073 7.3 8.4615 7.55 8.89227C7.79 9.32304 8.01 9.75381 8.22 10.1948H8.24C8.45 9.74355 8.67 9.30253 8.89 8.87176C9.11 8.44099 9.34 8.01022 9.57 7.57945C9.8 7.14868 10.02 6.70765 10.24 6.28714C10.25 6.24612 10.27 6.20509 10.3 6.18458C10.34 6.16406 10.38 6.15381 10.43 6.16406H12.54C12.59 6.15381 12.64 6.18458 12.65 6.23586C12.66 6.24612 12.64 6.28714 12.62 6.30765Z" fill="#F5F5F5"/>
<path d="M17.24 17.1283C16.5 17.1385 15.76 16.9847 15.09 16.6667C14.46 16.3693 13.94 15.877 13.58 15.2719C13.21 14.6462 13.03 13.8667 13.03 12.9334C13.02 12.1744 13.21 11.4257 13.58 10.7693C13.96 10.1026 14.51 9.54878 15.17 9.17955C15.87 8.77955 16.71 8.58468 17.7 8.58468C17.75 8.58468 17.82 8.58468 17.91 8.59494C18 8.60519 18.1 8.60519 18.22 8.61545V5.37442C18.22 5.30263 18.25 5.2616 18.32 5.2616H20.35C20.4 5.25135 20.44 5.29237 20.45 5.3334C20.45 5.34366 20.45 5.35391 20.45 5.35391V15.118C20.45 15.3026 20.46 15.5078 20.47 15.7334C20.49 15.9488 20.5 16.1539 20.51 16.3283C20.51 16.4001 20.48 16.4616 20.41 16.4924C19.89 16.718 19.34 16.8821 18.78 16.9847C18.27 17.077 17.76 17.1283 17.24 17.1283ZM18.22 15.077V10.5642C18.13 10.5437 18.04 10.5231 17.95 10.5129C17.84 10.5026 17.73 10.4924 17.62 10.4924C17.23 10.4924 16.84 10.5744 16.49 10.759C16.15 10.9334 15.86 11.1898 15.64 11.518C15.42 11.8462 15.31 12.2872 15.31 12.8206C15.3 13.1796 15.36 13.5385 15.48 13.877C15.58 14.1539 15.73 14.4001 15.93 14.6052C16.12 14.7898 16.35 14.9334 16.61 15.0154C16.88 15.1078 17.16 15.1488 17.44 15.1488C17.59 15.1488 17.73 15.1385 17.86 15.1283C17.99 15.1385 18.1 15.118 18.22 15.077Z" fill="#F5F5F5"/>
</g>
<defs>
<clipPath id="clip0_181_442">
<rect width="24" height="24" fill="white"/>
</clipPath>
</defs>
</svg>
